<mxfile host="app.diagrams.net" modified="2024-04-04T11:02:17.221Z" agent="Mozilla/5.0 (Windows NT 10.0; Win64; x64) AppleWebKit/537.36 (KHTML, like Gecko) Chrome/123.0.0.0 Safari/537.36" etag="zaGxPi9S8t4kmL0pGpRc" version="24.2.2" type="github">
  <diagram name="Página-1" id="fvp-vQnIGGh9xeoDT4wr">
    <mxGraphModel dx="1793" dy="2134" grid="1" gridSize="10" guides="1" tooltips="1" connect="1" arrows="1" fold="1" page="1" pageScale="1" pageWidth="827" pageHeight="1169" math="0" shadow="0">
      <root>
        <mxCell id="0" />
        <mxCell id="1" parent="0" />
        <mxCell id="DRrjUMENBPjv4pgYB6PE-14" value="" style="shape=hexagon;perimeter=hexagonPerimeter2;whiteSpace=wrap;html=1;fixedSize=1;shadow=1;" parent="1" vertex="1">
          <mxGeometry x="340" y="480" width="900" height="380" as="geometry" />
        </mxCell>
        <mxCell id="D51pD80760HK5LYng4LF-88" value="" style="rounded=0;whiteSpace=wrap;html=1;fillColor=#fff2cc;strokeColor=#d6b656;" vertex="1" parent="1">
          <mxGeometry x="615.7299999999999" y="629" width="500" height="221" as="geometry" />
        </mxCell>
        <mxCell id="czyIPTa2PEXbSXycgInY-2" value="" style="shape=hexagon;perimeter=hexagonPerimeter2;whiteSpace=wrap;html=1;fixedSize=1;shadow=1;" parent="1" vertex="1">
          <mxGeometry x="330" y="170" width="2980" height="280" as="geometry" />
        </mxCell>
        <mxCell id="D51pD80760HK5LYng4LF-54" value="&lt;b&gt;&amp;nbsp; &amp;nbsp; [precioFINAL] =&lt;/b&gt;" style="rounded=0;whiteSpace=wrap;html=1;fillColor=#e51400;strokeColor=#B20000;align=left;fontColor=#ffffff;" vertex="1" parent="1">
          <mxGeometry x="1770.05" y="207.5" width="1509.95" height="122.5" as="geometry" />
        </mxCell>
        <mxCell id="czyIPTa2PEXbSXycgInY-23" value="" style="shape=hexagon;perimeter=hexagonPerimeter2;whiteSpace=wrap;html=1;fixedSize=1;shadow=1;" parent="1" vertex="1">
          <mxGeometry x="1250" y="-80" width="830" height="230" as="geometry" />
        </mxCell>
        <mxCell id="czyIPTa2PEXbSXycgInY-1" value="" style="shape=hexagon;perimeter=hexagonPerimeter2;whiteSpace=wrap;html=1;fixedSize=1;shadow=1;" parent="1" vertex="1">
          <mxGeometry x="2120" y="-107.5" width="620" height="230" as="geometry" />
        </mxCell>
        <mxCell id="DRrjUMENBPjv4pgYB6PE-1" value="&lt;p style=&quot;margin:0cm;line-height:normal;mso-layout-grid-align:&lt;br/&gt;none;text-autospace:none&quot; class=&quot;MsoNormal&quot;&gt;&lt;font face=&quot;Courier New&quot;&gt;&lt;span style=&quot;font-size: 13.3333px;&quot;&gt;{&lt;/span&gt;&lt;/font&gt;&lt;/p&gt;&lt;p style=&quot;margin:0cm;line-height:normal;mso-layout-grid-align:&lt;br/&gt;none;text-autospace:none&quot; class=&quot;MsoNormal&quot;&gt;&lt;font face=&quot;Courier New&quot;&gt;&lt;span style=&quot;font-size: 13.3333px; white-space: normal;&quot;&gt;&lt;span style=&quot;white-space:pre&quot;&gt;&#x9;&lt;/span&gt;&quot;priorPrice&quot;:&amp;nbsp;&lt;/span&gt;&lt;/font&gt;&lt;span style=&quot;background-color: initial; font-size: 13.3333px;&quot;&gt;&lt;font face=&quot;Courier New&quot;&gt;2162.59&lt;/font&gt;&lt;/span&gt;&lt;span style=&quot;background-color: initial; font-size: 13.3333px; font-family: &amp;quot;Courier New&amp;quot;;&quot;&gt;,&lt;/span&gt;&lt;/p&gt;&lt;p style=&quot;margin:0cm;line-height:normal;mso-layout-grid-align:&lt;br/&gt;none;text-autospace:none&quot; class=&quot;MsoNormal&quot;&gt;&lt;font face=&quot;Courier New&quot;&gt;&lt;span style=&quot;font-size: 13.3333px; white-space: normal;&quot;&gt;&lt;span style=&quot;white-space:pre&quot;&gt;&#x9;&lt;/span&gt;&quot;actualPrice&quot;: 1968.54,&lt;/span&gt;&lt;/font&gt;&lt;/p&gt;&lt;p style=&quot;margin:0cm;line-height:normal;mso-layout-grid-align:&lt;br/&gt;none;text-autospace:none&quot; class=&quot;MsoNormal&quot;&gt;&lt;font face=&quot;Courier New&quot;&gt;&lt;span style=&quot;font-size: 13.3333px; white-space: normal;&quot;&gt;&lt;span style=&quot;white-space:pre&quot;&gt;&#x9;&lt;/span&gt;&quot;digitalCanon&quot;: 5.33&lt;/span&gt;&lt;/font&gt;&lt;/p&gt;&lt;p style=&quot;margin:0cm;line-height:normal;mso-layout-grid-align:&lt;br/&gt;none;text-autospace:none&quot; class=&quot;MsoNormal&quot;&gt;&lt;font face=&quot;Courier New&quot;&gt;&lt;span style=&quot;font-size: 13.3333px;&quot;&gt;}&lt;/span&gt;&lt;/font&gt;&lt;/p&gt;" style="text;html=1;align=left;verticalAlign=middle;whiteSpace=wrap;rounded=0;fillColor=#f5f5f5;fontColor=#333333;strokeColor=#666666;" parent="1" vertex="1">
          <mxGeometry x="20" y="80" width="320" height="100" as="geometry" />
        </mxCell>
        <mxCell id="DRrjUMENBPjv4pgYB6PE-4" value="&lt;span style=&quot;font-size:12.0pt;mso-bidi-font-size:11.0pt;&lt;br/&gt;line-height:150%;font-family:Muli;mso-ascii-theme-font:minor-latin;mso-fareast-font-family:&lt;br/&gt;Muli;mso-fareast-theme-font:minor-latin;mso-hansi-theme-font:minor-latin;&lt;br/&gt;mso-bidi-font-family:&amp;quot;Times New Roman&amp;quot;;mso-bidi-theme-font:minor-bidi;&lt;br/&gt;color:#323030;mso-themecolor:accent5;mso-themeshade:191;mso-ansi-language:ES;&lt;br/&gt;mso-fareast-language:EN-US;mso-bidi-language:AR-SA&quot;&gt;&lt;b&gt;/api/v1/Price/GetPrice&lt;/b&gt;&amp;nbsp;&lt;/span&gt;" style="text;html=1;align=center;verticalAlign=middle;whiteSpace=wrap;rounded=0;" parent="1" vertex="1">
          <mxGeometry y="40" width="220" height="30" as="geometry" />
        </mxCell>
        <mxCell id="DRrjUMENBPjv4pgYB6PE-6" style="edgeStyle=orthogonalEdgeStyle;rounded=0;orthogonalLoop=1;jettySize=auto;html=1;entryX=0;entryY=0.5;entryDx=0;entryDy=0;" parent="1" source="DRrjUMENBPjv4pgYB6PE-10" target="czyIPTa2PEXbSXycgInY-2" edge="1">
          <mxGeometry relative="1" as="geometry">
            <mxPoint x="290" y="300" as="targetPoint" />
            <Array as="points">
              <mxPoint x="240" y="437" />
              <mxPoint x="240" y="310" />
            </Array>
          </mxGeometry>
        </mxCell>
        <mxCell id="DRrjUMENBPjv4pgYB6PE-7" value="PVP" style="edgeLabel;html=1;align=center;verticalAlign=middle;resizable=0;points=[];" parent="DRrjUMENBPjv4pgYB6PE-6" vertex="1" connectable="0">
          <mxGeometry x="0.2571" y="3" relative="1" as="geometry">
            <mxPoint y="-1" as="offset" />
          </mxGeometry>
        </mxCell>
        <mxCell id="DRrjUMENBPjv4pgYB6PE-8" style="edgeStyle=orthogonalEdgeStyle;rounded=0;orthogonalLoop=1;jettySize=auto;html=1;entryX=0;entryY=0.5;entryDx=0;entryDy=0;" parent="1" source="DRrjUMENBPjv4pgYB6PE-10" target="DRrjUMENBPjv4pgYB6PE-14" edge="1">
          <mxGeometry relative="1" as="geometry">
            <mxPoint x="435" y="544.5" as="targetPoint" />
          </mxGeometry>
        </mxCell>
        <mxCell id="DRrjUMENBPjv4pgYB6PE-9" value="PVD" style="edgeLabel;html=1;align=center;verticalAlign=middle;resizable=0;points=[];" parent="DRrjUMENBPjv4pgYB6PE-8" vertex="1" connectable="0">
          <mxGeometry x="-0.1249" y="-3" relative="1" as="geometry">
            <mxPoint y="-1" as="offset" />
          </mxGeometry>
        </mxCell>
        <mxCell id="DRrjUMENBPjv4pgYB6PE-10" value="¿PVP / PVD?" style="rhombus;whiteSpace=wrap;html=1;" parent="1" vertex="1">
          <mxGeometry x="60" y="397.5" width="85" height="80" as="geometry" />
        </mxCell>
        <mxCell id="DRrjUMENBPjv4pgYB6PE-16" value="&lt;b&gt;[actualPrice]&lt;/b&gt;" style="rounded=0;whiteSpace=wrap;html=1;fillColor=#d5e8d4;strokeColor=#82b366;" parent="1" vertex="1">
          <mxGeometry x="634.8199999999999" y="659" width="120" height="60" as="geometry" />
        </mxCell>
        <mxCell id="DRrjUMENBPjv4pgYB6PE-29" value="&lt;div&gt;&lt;b style=&quot;&quot;&gt;&lt;i&gt;[&lt;/i&gt;valor&lt;/b&gt;&lt;i&gt;&lt;b&gt;] &lt;/b&gt;*&amp;nbsp;&lt;/i&gt;&lt;b&gt;[IVA]&lt;/b&gt;&lt;i&gt;/100&lt;/i&gt;&lt;/div&gt;" style="whiteSpace=wrap;html=1;fillColor=#ffff88;strokeColor=#36393d;" parent="1" vertex="1">
          <mxGeometry x="1890" y="-2.5" width="140" height="60" as="geometry" />
        </mxCell>
        <mxCell id="DRrjUMENBPjv4pgYB6PE-32" value="" style="edgeStyle=orthogonalEdgeStyle;rounded=0;orthogonalLoop=1;jettySize=auto;html=1;" parent="1" source="DRrjUMENBPjv4pgYB6PE-38" target="DRrjUMENBPjv4pgYB6PE-39" edge="1">
          <mxGeometry relative="1" as="geometry" />
        </mxCell>
        <mxCell id="DRrjUMENBPjv4pgYB6PE-33" value="" style="edgeStyle=orthogonalEdgeStyle;rounded=0;orthogonalLoop=1;jettySize=auto;html=1;" parent="1" source="DRrjUMENBPjv4pgYB6PE-38" target="DRrjUMENBPjv4pgYB6PE-39" edge="1">
          <mxGeometry relative="1" as="geometry" />
        </mxCell>
        <mxCell id="DRrjUMENBPjv4pgYB6PE-34" value="" style="edgeStyle=orthogonalEdgeStyle;rounded=0;orthogonalLoop=1;jettySize=auto;html=1;" parent="1" source="DRrjUMENBPjv4pgYB6PE-38" target="DRrjUMENBPjv4pgYB6PE-39" edge="1">
          <mxGeometry relative="1" as="geometry" />
        </mxCell>
        <mxCell id="DRrjUMENBPjv4pgYB6PE-35" value="Sí" style="edgeLabel;html=1;align=center;verticalAlign=middle;resizable=0;points=[];" parent="DRrjUMENBPjv4pgYB6PE-34" vertex="1" connectable="0">
          <mxGeometry x="0.1215" y="3" relative="1" as="geometry">
            <mxPoint x="1" as="offset" />
          </mxGeometry>
        </mxCell>
        <mxCell id="DRrjUMENBPjv4pgYB6PE-36" style="edgeStyle=orthogonalEdgeStyle;rounded=0;orthogonalLoop=1;jettySize=auto;html=1;" parent="1" source="DRrjUMENBPjv4pgYB6PE-38" target="DRrjUMENBPjv4pgYB6PE-40" edge="1">
          <mxGeometry relative="1" as="geometry" />
        </mxCell>
        <mxCell id="DRrjUMENBPjv4pgYB6PE-37" value="No" style="edgeLabel;html=1;align=center;verticalAlign=middle;resizable=0;points=[];" parent="DRrjUMENBPjv4pgYB6PE-36" vertex="1" connectable="0">
          <mxGeometry x="-0.0197" y="-4" relative="1" as="geometry">
            <mxPoint as="offset" />
          </mxGeometry>
        </mxCell>
        <mxCell id="DRrjUMENBPjv4pgYB6PE-38" value="&lt;font style=&quot;font-size: 12px;&quot;&gt;account.&lt;br&gt;hasEquivalenceSurchange &amp;amp;&amp;amp;&amp;nbsp;&lt;b style=&quot;background-color: initial;&quot;&gt;[precioIVA]&lt;/b&gt;&amp;nbsp;&amp;gt; 0&lt;/font&gt;" style="rhombus;whiteSpace=wrap;html=1;" parent="1" vertex="1">
          <mxGeometry x="2200" y="-37.5" width="187.48" height="110" as="geometry" />
        </mxCell>
        <mxCell id="D51pD80760HK5LYng4LF-50" style="edgeStyle=orthogonalEdgeStyle;rounded=0;orthogonalLoop=1;jettySize=auto;html=1;entryX=0;entryY=0.5;entryDx=0;entryDy=0;" edge="1" parent="1" source="DRrjUMENBPjv4pgYB6PE-39" target="D51pD80760HK5LYng4LF-49">
          <mxGeometry relative="1" as="geometry" />
        </mxCell>
        <mxCell id="DRrjUMENBPjv4pgYB6PE-39" value="&lt;b&gt;[recargo]&lt;/b&gt; = 5.2%" style="whiteSpace=wrap;html=1;" parent="1" vertex="1">
          <mxGeometry x="2426.7" y="-42.5" width="120" height="38.75" as="geometry" />
        </mxCell>
        <mxCell id="D51pD80760HK5LYng4LF-52" style="edgeStyle=orthogonalEdgeStyle;rounded=0;orthogonalLoop=1;jettySize=auto;html=1;entryX=0;entryY=0.75;entryDx=0;entryDy=0;" edge="1" parent="1" source="DRrjUMENBPjv4pgYB6PE-40" target="D51pD80760HK5LYng4LF-49">
          <mxGeometry relative="1" as="geometry" />
        </mxCell>
        <mxCell id="DRrjUMENBPjv4pgYB6PE-40" value="&lt;b&gt;[recargo] =&amp;nbsp;&lt;/b&gt;0%" style="whiteSpace=wrap;html=1;" parent="1" vertex="1">
          <mxGeometry x="2426.7" y="26.25" width="120" height="41.25" as="geometry" />
        </mxCell>
        <mxCell id="DRrjUMENBPjv4pgYB6PE-43" value="&lt;b&gt;Recargo de equivalencia&lt;/b&gt;" style="text;html=1;strokeColor=none;fillColor=none;align=center;verticalAlign=middle;whiteSpace=wrap;rounded=0;" parent="1" vertex="1">
          <mxGeometry x="2160" y="-95.00999999999999" width="200" height="30" as="geometry" />
        </mxCell>
        <mxCell id="DRrjUMENBPjv4pgYB6PE-51" value="&lt;b&gt;Margen de beneficio del cliente&lt;/b&gt;" style="text;html=1;strokeColor=none;fillColor=none;align=center;verticalAlign=middle;whiteSpace=wrap;rounded=0;" parent="1" vertex="1">
          <mxGeometry x="383.81000000000023" y="202.5" width="200" height="30" as="geometry" />
        </mxCell>
        <mxCell id="DRrjUMENBPjv4pgYB6PE-52" value="" style="edgeStyle=orthogonalEdgeStyle;rounded=0;orthogonalLoop=1;jettySize=auto;html=1;exitX=1;exitY=0.5;exitDx=0;exitDy=0;" parent="1" source="DRrjUMENBPjv4pgYB6PE-56" target="DRrjUMENBPjv4pgYB6PE-57" edge="1">
          <mxGeometry relative="1" as="geometry">
            <mxPoint x="991.3507690058482" y="276.27315789473664" as="sourcePoint" />
          </mxGeometry>
        </mxCell>
        <mxCell id="DRrjUMENBPjv4pgYB6PE-53" value="Porcentaje" style="edgeLabel;html=1;align=center;verticalAlign=middle;resizable=0;points=[];" parent="DRrjUMENBPjv4pgYB6PE-52" vertex="1" connectable="0">
          <mxGeometry x="-0.0607" y="3" relative="1" as="geometry">
            <mxPoint as="offset" />
          </mxGeometry>
        </mxCell>
        <mxCell id="DRrjUMENBPjv4pgYB6PE-54" style="edgeStyle=orthogonalEdgeStyle;rounded=0;orthogonalLoop=1;jettySize=auto;html=1;entryX=-0.004;entryY=0.576;entryDx=0;entryDy=0;entryPerimeter=0;exitX=1;exitY=0.5;exitDx=0;exitDy=0;" parent="1" source="DRrjUMENBPjv4pgYB6PE-56" target="D51pD80760HK5LYng4LF-13" edge="1">
          <mxGeometry relative="1" as="geometry">
            <mxPoint x="991.3507690058482" y="276.27315789473664" as="sourcePoint" />
            <mxPoint x="1117.7199999999998" y="263.13" as="targetPoint" />
          </mxGeometry>
        </mxCell>
        <mxCell id="DRrjUMENBPjv4pgYB6PE-55" value="Valor fijo" style="edgeLabel;html=1;align=center;verticalAlign=middle;resizable=0;points=[];" parent="DRrjUMENBPjv4pgYB6PE-54" vertex="1" connectable="0">
          <mxGeometry x="-0.0283" y="2" relative="1" as="geometry">
            <mxPoint y="-9" as="offset" />
          </mxGeometry>
        </mxCell>
        <mxCell id="DRrjUMENBPjv4pgYB6PE-56" value="Porcentaje/&lt;br&gt;Valor Fijo" style="rhombus;whiteSpace=wrap;html=1;fillColor=#e6d0de;gradientColor=#d5739d;strokeColor=#996185;" parent="1" vertex="1">
          <mxGeometry x="859.8100000000002" y="276.25" width="131.54" height="90" as="geometry" />
        </mxCell>
        <mxCell id="D51pD80760HK5LYng4LF-25" style="edgeStyle=orthogonalEdgeStyle;rounded=0;orthogonalLoop=1;jettySize=auto;html=1;entryX=0;entryY=0;entryDx=0;entryDy=0;" edge="1" parent="1" source="DRrjUMENBPjv4pgYB6PE-57" target="D51pD80760HK5LYng4LF-23">
          <mxGeometry relative="1" as="geometry" />
        </mxCell>
        <mxCell id="DRrjUMENBPjv4pgYB6PE-57" value="&lt;div style=&quot;text-align: left;&quot;&gt;&lt;span style=&quot;background-color: initial;&quot;&gt;[margen] = {&lt;/span&gt;&lt;/div&gt;&lt;div style=&quot;text-align: left;&quot;&gt;&lt;span style=&quot;white-space: pre;&quot;&gt;&#x9;&lt;/span&gt;&quot;porcentaje&quot;: true,&lt;/div&gt;&lt;div style=&quot;text-align: left;&quot;&gt;&lt;span style=&quot;white-space: pre;&quot;&gt;&#x9;&lt;/span&gt;&quot;valor&quot;:&amp;nbsp;&amp;nbsp;&lt;span style=&quot;background-color: initial;&quot;&gt;margenProducto.&lt;b&gt;porcentaje&lt;/b&gt;&lt;/span&gt;&lt;/div&gt;&lt;div style=&quot;text-align: left;&quot;&gt;}&amp;nbsp;&lt;/div&gt;" style="whiteSpace=wrap;html=1;fillColor=#ffcccc;strokeColor=#36393d;" parent="1" vertex="1">
          <mxGeometry x="1028.61" y="230" width="269.11" height="60" as="geometry" />
        </mxCell>
        <mxCell id="DRrjUMENBPjv4pgYB6PE-59" style="edgeStyle=orthogonalEdgeStyle;rounded=0;orthogonalLoop=1;jettySize=auto;html=1;" parent="1" source="DRrjUMENBPjv4pgYB6PE-63" target="DRrjUMENBPjv4pgYB6PE-64" edge="1">
          <mxGeometry relative="1" as="geometry" />
        </mxCell>
        <mxCell id="DRrjUMENBPjv4pgYB6PE-60" value="Sí" style="edgeLabel;html=1;align=center;verticalAlign=middle;resizable=0;points=[];" parent="DRrjUMENBPjv4pgYB6PE-59" vertex="1" connectable="0">
          <mxGeometry x="0.3973" y="3" relative="1" as="geometry">
            <mxPoint as="offset" />
          </mxGeometry>
        </mxCell>
        <mxCell id="D51pD80760HK5LYng4LF-61" style="edgeStyle=orthogonalEdgeStyle;rounded=0;orthogonalLoop=1;jettySize=auto;html=1;entryX=0;entryY=0.5;entryDx=0;entryDy=0;" edge="1" parent="1" source="DRrjUMENBPjv4pgYB6PE-63" target="D51pD80760HK5LYng4LF-9">
          <mxGeometry relative="1" as="geometry" />
        </mxCell>
        <mxCell id="D51pD80760HK5LYng4LF-62" value="No" style="edgeLabel;html=1;align=center;verticalAlign=middle;resizable=0;points=[];" vertex="1" connectable="0" parent="D51pD80760HK5LYng4LF-61">
          <mxGeometry x="0.1754" y="-3" relative="1" as="geometry">
            <mxPoint x="-1" y="11" as="offset" />
          </mxGeometry>
        </mxCell>
        <mxCell id="DRrjUMENBPjv4pgYB6PE-63" value="equipoEven?" style="rhombus;whiteSpace=wrap;html=1;" parent="1" vertex="1">
          <mxGeometry x="405.72999999999996" y="292.49" width="100" height="100" as="geometry" />
        </mxCell>
        <mxCell id="D51pD80760HK5LYng4LF-24" style="edgeStyle=orthogonalEdgeStyle;rounded=0;orthogonalLoop=1;jettySize=auto;html=1;entryX=0.5;entryY=0;entryDx=0;entryDy=0;" edge="1" parent="1" source="DRrjUMENBPjv4pgYB6PE-64" target="D51pD80760HK5LYng4LF-23">
          <mxGeometry relative="1" as="geometry">
            <Array as="points">
              <mxPoint x="695" y="220" />
              <mxPoint x="1612" y="220" />
            </Array>
          </mxGeometry>
        </mxCell>
        <mxCell id="DRrjUMENBPjv4pgYB6PE-64" value="&lt;div style=&quot;&quot;&gt;&lt;span style=&quot;background-color: initial;&quot;&gt;[margen] = {&lt;/span&gt;&lt;/div&gt;&lt;div style=&quot;&quot;&gt;&lt;span style=&quot;white-space: pre;&quot;&gt;&#x9;&lt;/span&gt;&quot;porcentaje&quot;: true,&lt;/div&gt;&lt;div style=&quot;&quot;&gt;&lt;span style=&quot;white-space: pre;&quot;&gt;&#x9;&lt;/span&gt;&quot;valor&quot;:&amp;nbsp;&amp;nbsp;&lt;span style=&quot;background-color: initial;&quot;&gt;account.&lt;b&gt;marginConfigurador&lt;/b&gt;&lt;/span&gt;&lt;/div&gt;&lt;span style=&quot;background-color: initial;&quot;&gt;}&amp;nbsp;&lt;/span&gt;" style="whiteSpace=wrap;html=1;fillColor=#ffcccc;strokeColor=#36393d;align=left;" parent="1" vertex="1">
          <mxGeometry x="542.5300000000002" y="241.24" width="304.28" height="70" as="geometry" />
        </mxCell>
        <mxCell id="DRrjUMENBPjv4pgYB6PE-78" value="&lt;b&gt;&lt;u&gt;&lt;font style=&quot;font-size: 14px;&quot;&gt;PVD&lt;/font&gt;&lt;/u&gt;&lt;/b&gt;" style="text;html=1;strokeColor=none;fillColor=none;align=center;verticalAlign=middle;whiteSpace=wrap;rounded=0;" parent="1" vertex="1">
          <mxGeometry x="354" y="482.5" width="60" height="30" as="geometry" />
        </mxCell>
        <mxCell id="czyIPTa2PEXbSXycgInY-4" value="En el carrito / Proceso de compra" style="text;html=1;align=center;verticalAlign=middle;whiteSpace=wrap;rounded=0;fontStyle=1;fontSize=16;" parent="1" vertex="1">
          <mxGeometry x="0.3299999999999983" y="1450" width="310" height="30" as="geometry" />
        </mxCell>
        <mxCell id="czyIPTa2PEXbSXycgInY-5" value="El margen de beneficio no se muestra en el carrito" style="whiteSpace=wrap;html=1;dashed=1;dashPattern=12 12;" parent="1" vertex="1">
          <mxGeometry x="273.29" y="1524.7" width="385" height="70" as="geometry" />
        </mxCell>
        <mxCell id="czyIPTa2PEXbSXycgInY-6" value="&lt;h1&gt;&lt;font style=&quot;font-size: 15px;&quot;&gt;Subtotal &lt;span style=&quot;font-weight: normal;&quot;&gt;=&lt;/span&gt;&amp;nbsp;&lt;/font&gt;&lt;span style=&quot;font-weight: normal;&quot;&gt;&lt;font style=&quot;font-size: 14px;&quot;&gt;Suma de todos los actualPrice &lt;u&gt;(NO PRECIOS FIJOS, los márgenes no entran en el carrito)&lt;/u&gt; excepto [Canon en equipos] que se añaden al LPI.&lt;/font&gt;&lt;/span&gt;&lt;/h1&gt;&lt;div style=&quot;line-height: 132%;&quot;&gt;&lt;font style=&quot;font-size: 15px;&quot;&gt;&lt;b&gt;LPI &lt;/b&gt;&lt;/font&gt;&lt;font style=&quot;font-size: 15px; font-weight: normal;&quot;&gt;= [Suma el digitalCanon del precio de cada producto suelto y dentro de cada equipo Even suma el precio del producto contenido [Canon en equipos]]&lt;/font&gt;&lt;/div&gt;&lt;div style=&quot;line-height: 132%;&quot;&gt;&lt;font style=&quot;font-size: 15px; font-weight: normal;&quot;&gt;&lt;br&gt;&lt;/font&gt;&lt;/div&gt;&lt;div style=&quot;line-height: 132%;&quot;&gt;&lt;font style=&quot;font-size: 15px;&quot;&gt;&lt;b&gt;Envío&lt;/b&gt;&lt;/font&gt;&lt;font style=&quot;font-size: 15px; font-weight: normal;&quot;&gt; = Debe estar seleccionado (quizás aún no esté fijado) hasta que no accedan al proceso de compra. Si aún no lo &lt;span style=&quot;white-space: pre;&quot;&gt;&#x9;&lt;/span&gt;&amp;nbsp; &amp;nbsp; &amp;nbsp; &amp;nbsp; &amp;nbsp; &amp;nbsp; &amp;nbsp; &amp;nbsp; &amp;nbsp; &amp;nbsp; tenemos no se muestra. -&amp;gt; [Precio obtenido a través del endpoint amoutShipping para la agencia seleccionada)]&lt;/font&gt;&lt;/div&gt;&lt;div style=&quot;line-height: 132%;&quot;&gt;&lt;font style=&quot;font-size: 15px; font-weight: normal;&quot;&gt;&lt;br&gt;&lt;/font&gt;&lt;/div&gt;&lt;div style=&quot;line-height: 132%;&quot;&gt;&lt;font style=&quot;font-size: 15px;&quot;&gt;&lt;b&gt;IVA (21%)&lt;/b&gt;&lt;/font&gt;&lt;font style=&quot;font-size: 15px; font-weight: normal;&quot;&gt; = Calcula el 21% de IVA sobre:&amp;nbsp; &lt;/font&gt;&lt;font style=&quot;font-size: 15px;&quot;&gt;&lt;b&gt;subtotal&amp;nbsp;&lt;/b&gt;&lt;/font&gt;&lt;font style=&quot;background-color: initial; font-size: 15px;&quot;&gt;solo de los productos que cumplan&amp;nbsp;&lt;/font&gt;&lt;span style=&quot;background-color: rgb(255, 255, 255); color: rgb(179, 106, 226); font-family: Aptos, sans-serif; font-size: 14.6667px;&quot;&gt;[Condiciones para IVA]&lt;/span&gt;&lt;font style=&quot;background-color: initial; font-size: 15px;&quot;&gt;&amp;nbsp; + &lt;/font&gt;&lt;font style=&quot;background-color: initial; font-size: 15px;&quot;&gt;&lt;b&gt;digitalCanon &lt;/b&gt;&lt;/font&gt;&lt;font style=&quot;background-color: initial; font-size: 15px;&quot;&gt;solo de los productos que cumplan&amp;nbsp;&lt;/font&gt;&lt;span style=&quot;background-color: rgb(255, 255, 255); color: rgb(179, 106, 226); font-family: Aptos, sans-serif; font-size: 14.6667px;&quot;&gt;[Condiciones para IVA]&lt;/span&gt;&lt;span style=&quot;background-color: initial; font-size: 15px;&quot;&gt;&amp;nbsp;+ [&lt;b&gt;Envío&lt;/b&gt;])&amp;nbsp;&lt;/span&gt;&lt;/div&gt;&lt;div style=&quot;line-height: 132%;&quot;&gt;&lt;font style=&quot;font-size: 15px; font-weight: normal;&quot;&gt;&lt;br&gt;&lt;/font&gt;&lt;/div&gt;&lt;div style=&quot;line-height: 132%;&quot;&gt;&lt;font style=&quot;font-size: 15px;&quot;&gt;&lt;b&gt;Recargo de equivalencia (5.2%)&lt;/b&gt; = Calcula un 5.2% sobre:&lt;/font&gt;&lt;font style=&quot;background-color: initial; font-size: 15px;&quot;&gt;&amp;nbsp;&lt;/font&gt;&lt;font style=&quot;background-color: initial; font-size: 15px;&quot;&gt;&lt;b&gt;subtotal&amp;nbsp;&lt;/b&gt;&lt;/font&gt;&lt;font style=&quot;background-color: initial; font-size: 15px;&quot;&gt;solo de los productos que cumplan&amp;nbsp;&lt;/font&gt;&lt;font style=&quot;background-color: initial; font-size: 15px;&quot;&gt;&lt;span style=&quot;color: rgb(179, 106, 226); font-family: Aptos, sans-serif; font-size: 14.6667px; background-color: rgb(255, 255, 255);&quot;&gt;[Condiciones para Recargo de equivalencia]&lt;/span&gt;&amp;nbsp; +&amp;nbsp;&lt;/font&gt;&lt;font style=&quot;background-color: initial; font-size: 15px;&quot;&gt;&lt;b&gt;digitalCanon&amp;nbsp;&lt;/b&gt;&lt;/font&gt;&lt;font style=&quot;background-color: initial; font-size: 15px;&quot;&gt;solo de los productos que cumplan&amp;nbsp;&lt;/font&gt;&lt;span style=&quot;color: rgb(179, 106, 226); font-family: Aptos, sans-serif; font-size: 14.6667px; background-color: rgb(255, 255, 255);&quot;&gt;[Condiciones para Recargo de equivalencia]&lt;/span&gt;&lt;span style=&quot;background-color: initial; font-size: 15px;&quot;&gt;&amp;nbsp;+ [&lt;b&gt;Envío&lt;/b&gt;])&amp;nbsp;&lt;/span&gt;&lt;/div&gt;&lt;div style=&quot;line-height: 132%;&quot;&gt;&lt;font style=&quot;font-size: 15px;&quot;&gt;&lt;br&gt;&lt;/font&gt;&lt;/div&gt;&lt;div style=&quot;line-height: 132%;&quot;&gt;&lt;font style=&quot;font-size: 15px;&quot;&gt;&lt;b&gt;Total &lt;/b&gt;= [subtotal + LPI + Envío + IVA + Recargo de equivalencia]&lt;/font&gt;&lt;/div&gt;" style="text;html=1;strokeColor=none;fillColor=none;spacing=5;spacingTop=-20;whiteSpace=wrap;overflow=hidden;rounded=0;" parent="1" vertex="1">
          <mxGeometry x="215.01" y="1684.7" width="830.71" height="350" as="geometry" />
        </mxCell>
        <mxCell id="czyIPTa2PEXbSXycgInY-8" value="account.hasEquivalenceSurchange?" style="text;html=1;strokeColor=#d6b656;fillColor=#fff2cc;align=center;verticalAlign=middle;whiteSpace=wrap;rounded=0;" parent="1" vertex="1">
          <mxGeometry x="0.32999999999999474" y="1924.7" width="210" height="30" as="geometry" />
        </mxCell>
        <mxCell id="czyIPTa2PEXbSXycgInY-9" value="Si account.withoutVAT es false" style="text;html=1;strokeColor=#d6b656;fillColor=#fff2cc;align=center;verticalAlign=middle;whiteSpace=wrap;rounded=0;" parent="1" vertex="1">
          <mxGeometry x="0.32999999999999474" y="1868.7" width="210" height="30" as="geometry" />
        </mxCell>
        <mxCell id="czyIPTa2PEXbSXycgInY-10" value="Si tiene la agencia de transporte seleccionada" style="text;html=1;strokeColor=#d6b656;fillColor=#fff2cc;align=center;verticalAlign=middle;whiteSpace=wrap;rounded=0;" parent="1" vertex="1">
          <mxGeometry x="0.32999999999999474" y="1814.7" width="210.84" height="30" as="geometry" />
        </mxCell>
        <mxCell id="czyIPTa2PEXbSXycgInY-12" value="&lt;span style=&quot;font-weight: normal;&quot;&gt;Independientemente de lo marcado en la cabecera PVD/PVP aquí siempre mostraremos los mismo&lt;/span&gt;" style="text;html=1;align=center;verticalAlign=middle;whiteSpace=wrap;rounded=0;fontStyle=1;fontSize=16;" parent="1" vertex="1">
          <mxGeometry x="13.29" y="1494.7" width="740" height="30" as="geometry" />
        </mxCell>
        <mxCell id="czyIPTa2PEXbSXycgInY-13" value="&lt;span style=&quot;font-weight: normal;&quot;&gt;Desglose al pie:&lt;/span&gt;" style="text;html=1;align=left;verticalAlign=middle;whiteSpace=wrap;rounded=0;fontStyle=1;fontSize=16;" parent="1" vertex="1">
          <mxGeometry x="23.29" y="1604.7" width="740" height="30" as="geometry" />
        </mxCell>
        <mxCell id="czyIPTa2PEXbSXycgInY-14" value="[Canon en Equipos] = Es el producto con codMyrtus 22238. El precio se obtiene de su actualPrice." style="whiteSpace=wrap;html=1;dashed=1;dashPattern=12 12;fillColor=#d5e8d4;strokeColor=#82b366;" parent="1" vertex="1">
          <mxGeometry x="955" y="1514.7" width="385" height="70" as="geometry" />
        </mxCell>
        <mxCell id="czyIPTa2PEXbSXycgInY-16" value="&lt;font face=&quot;Muli&quot;&gt;&lt;span style=&quot;font-size: 16px;&quot;&gt;&lt;b&gt;/api/v1/AmountShipping&lt;/b&gt;&lt;/span&gt;&lt;/font&gt;" style="text;html=1;align=center;verticalAlign=middle;whiteSpace=wrap;rounded=0;" parent="1" vertex="1">
          <mxGeometry x="380" y="40" width="220" height="30" as="geometry" />
        </mxCell>
        <mxCell id="czyIPTa2PEXbSXycgInY-17" value="&lt;p style=&quot;margin:0cm;line-height:normal;mso-layout-grid-align:&lt;br/&gt;none;text-autospace:none&quot; class=&quot;MsoNormal&quot;&gt;&lt;span style=&quot;font-size: 13.3333px; font-family: &amp;quot;Courier New&amp;quot;; background-color: initial;&quot;&gt;{&lt;/span&gt;&lt;br&gt;&lt;/p&gt;&lt;p style=&quot;margin:0cm;line-height:normal;mso-layout-grid-align:&lt;br/&gt;none;text-autospace:none&quot; class=&quot;MsoNormal&quot;&gt;&lt;font face=&quot;Courier New&quot;&gt;&lt;span style=&quot;font-size: 13.3333px;&quot;&gt;&amp;nbsp; &quot;amount&quot;: 4.38&lt;/span&gt;&lt;/font&gt;&lt;/p&gt;&lt;p style=&quot;margin:0cm;line-height:normal;mso-layout-grid-align:&lt;br/&gt;none;text-autospace:none&quot; class=&quot;MsoNormal&quot;&gt;&lt;font face=&quot;Courier New&quot;&gt;&lt;span style=&quot;font-size: 13.3333px;&quot;&gt;}&lt;/span&gt;&lt;/font&gt;&lt;/p&gt;" style="text;html=1;align=left;verticalAlign=middle;whiteSpace=wrap;rounded=0;fillColor=#f5f5f5;fontColor=#333333;strokeColor=#666666;" parent="1" vertex="1">
          <mxGeometry x="399.29" y="80" width="320" height="70" as="geometry" />
        </mxCell>
        <mxCell id="czyIPTa2PEXbSXycgInY-18" value="Si es distinto de cero" style="text;html=1;strokeColor=#d6b656;fillColor=#fff2cc;align=center;verticalAlign=middle;whiteSpace=wrap;rounded=0;" parent="1" vertex="1">
          <mxGeometry x="0.32999999999999474" y="1754.7" width="210.84" height="30" as="geometry" />
        </mxCell>
        <mxCell id="czyIPTa2PEXbSXycgInY-19" value="&lt;b&gt;Visibilidad del campo&lt;/b&gt;" style="text;html=1;strokeColor=#d6b656;fillColor=#fff2cc;align=center;verticalAlign=middle;whiteSpace=wrap;rounded=0;" parent="1" vertex="1">
          <mxGeometry x="0.32999999999998764" y="1654.7" width="210.84" height="30" as="geometry" />
        </mxCell>
        <mxCell id="czyIPTa2PEXbSXycgInY-20" value="Siempre" style="text;html=1;strokeColor=#d6b656;fillColor=#fff2cc;align=center;verticalAlign=middle;whiteSpace=wrap;rounded=0;" parent="1" vertex="1">
          <mxGeometry x="0.32999999999999474" y="1694.7" width="210.84" height="30" as="geometry" />
        </mxCell>
        <mxCell id="czyIPTa2PEXbSXycgInY-22" value="&lt;span style=&quot;color: rgb(179, 106, 226); font-family: Aptos, sans-serif; font-size: 14.6667px; font-style: normal; font-variant-ligatures: normal; font-variant-caps: normal; font-weight: 400; letter-spacing: normal; orphans: 2; text-align: left; text-indent: 0px; text-transform: none; widows: 2; word-spacing: 0px; -webkit-text-stroke-width: 0px; white-space: normal; background-color: rgb(255, 255, 255); text-decoration-thickness: initial; text-decoration-style: initial; text-decoration-color: initial; display: inline !important; float: none;&quot;&gt;[Condiciones para Recargo de equivalencia]&lt;/span&gt;" style="text;whiteSpace=wrap;html=1;" parent="1" vertex="1">
          <mxGeometry x="2179" y="95" width="320" height="40" as="geometry" />
        </mxCell>
        <mxCell id="czyIPTa2PEXbSXycgInY-24" style="edgeStyle=orthogonalEdgeStyle;rounded=0;orthogonalLoop=1;jettySize=auto;html=1;entryX=0;entryY=0.5;entryDx=0;entryDy=0;exitX=0.796;exitY=0.709;exitDx=0;exitDy=0;exitPerimeter=0;" parent="1" source="czyIPTa2PEXbSXycgInY-28" target="czyIPTa2PEXbSXycgInY-30" edge="1">
          <mxGeometry relative="1" as="geometry">
            <mxPoint x="1424.85" y="61.25" as="sourcePoint" />
          </mxGeometry>
        </mxCell>
        <mxCell id="czyIPTa2PEXbSXycgInY-25" value="Sí" style="edgeLabel;html=1;align=center;verticalAlign=middle;resizable=0;points=[];" parent="czyIPTa2PEXbSXycgInY-24" vertex="1" connectable="0">
          <mxGeometry x="0.1145" y="4" relative="1" as="geometry">
            <mxPoint as="offset" />
          </mxGeometry>
        </mxCell>
        <mxCell id="czyIPTa2PEXbSXycgInY-26" style="edgeStyle=orthogonalEdgeStyle;rounded=0;orthogonalLoop=1;jettySize=auto;html=1;" parent="1" source="czyIPTa2PEXbSXycgInY-28" target="czyIPTa2PEXbSXycgInY-36" edge="1">
          <mxGeometry relative="1" as="geometry" />
        </mxCell>
        <mxCell id="czyIPTa2PEXbSXycgInY-27" value="No" style="edgeLabel;html=1;align=center;verticalAlign=middle;resizable=0;points=[];" parent="czyIPTa2PEXbSXycgInY-26" vertex="1" connectable="0">
          <mxGeometry x="0.1572" y="-3" relative="1" as="geometry">
            <mxPoint as="offset" />
          </mxGeometry>
        </mxCell>
        <mxCell id="czyIPTa2PEXbSXycgInY-28" value="account.withoutVAT?" style="rhombus;whiteSpace=wrap;html=1;" parent="1" vertex="1">
          <mxGeometry x="1280" y="-13.75" width="160.77" height="110" as="geometry" />
        </mxCell>
        <mxCell id="D51pD80760HK5LYng4LF-42" style="edgeStyle=orthogonalEdgeStyle;rounded=0;orthogonalLoop=1;jettySize=auto;html=1;" edge="1" parent="1" source="czyIPTa2PEXbSXycgInY-29" target="DRrjUMENBPjv4pgYB6PE-29">
          <mxGeometry relative="1" as="geometry" />
        </mxCell>
        <mxCell id="czyIPTa2PEXbSXycgInY-29" value="&lt;b&gt;&amp;nbsp;[IVA]&lt;/b&gt; = 21%" style="whiteSpace=wrap;html=1;" parent="1" vertex="1">
          <mxGeometry x="1770" y="-45.620000000000005" width="73.3" height="60" as="geometry" />
        </mxCell>
        <mxCell id="D51pD80760HK5LYng4LF-43" style="edgeStyle=orthogonalEdgeStyle;rounded=0;orthogonalLoop=1;jettySize=auto;html=1;entryX=0;entryY=0.75;entryDx=0;entryDy=0;" edge="1" parent="1" source="czyIPTa2PEXbSXycgInY-30" target="DRrjUMENBPjv4pgYB6PE-29">
          <mxGeometry relative="1" as="geometry" />
        </mxCell>
        <mxCell id="czyIPTa2PEXbSXycgInY-30" value="&lt;b&gt;[IVA]&lt;/b&gt; = 0%" style="whiteSpace=wrap;html=1;" parent="1" vertex="1">
          <mxGeometry x="1524.07" y="66.25" width="75.93" height="60" as="geometry" />
        </mxCell>
        <mxCell id="czyIPTa2PEXbSXycgInY-32" style="edgeStyle=orthogonalEdgeStyle;rounded=0;orthogonalLoop=1;jettySize=auto;html=1;" parent="1" source="czyIPTa2PEXbSXycgInY-36" target="czyIPTa2PEXbSXycgInY-30" edge="1">
          <mxGeometry relative="1" as="geometry">
            <mxPoint x="1600" y="56.25" as="targetPoint" />
          </mxGeometry>
        </mxCell>
        <mxCell id="czyIPTa2PEXbSXycgInY-33" value="Sí" style="edgeLabel;html=1;align=center;verticalAlign=middle;resizable=0;points=[];" parent="czyIPTa2PEXbSXycgInY-32" vertex="1" connectable="0">
          <mxGeometry x="-0.3791" y="1" relative="1" as="geometry">
            <mxPoint as="offset" />
          </mxGeometry>
        </mxCell>
        <mxCell id="czyIPTa2PEXbSXycgInY-34" style="edgeStyle=orthogonalEdgeStyle;rounded=0;orthogonalLoop=1;jettySize=auto;html=1;entryX=0;entryY=0.5;entryDx=0;entryDy=0;" parent="1" source="czyIPTa2PEXbSXycgInY-36" target="czyIPTa2PEXbSXycgInY-29" edge="1">
          <mxGeometry relative="1" as="geometry" />
        </mxCell>
        <mxCell id="czyIPTa2PEXbSXycgInY-35" value="No" style="edgeLabel;html=1;align=center;verticalAlign=middle;resizable=0;points=[];" parent="czyIPTa2PEXbSXycgInY-34" vertex="1" connectable="0">
          <mxGeometry x="-0.546" y="-3" relative="1" as="geometry">
            <mxPoint x="1" as="offset" />
          </mxGeometry>
        </mxCell>
        <mxCell id="czyIPTa2PEXbSXycgInY-36" value="account.isReseller &amp;amp;&amp;amp; product.&lt;br&gt;reverseChargeProcedure" style="rhombus;whiteSpace=wrap;html=1;" parent="1" vertex="1">
          <mxGeometry x="1499.8" y="-62.5" width="200.39" height="93.75" as="geometry" />
        </mxCell>
        <mxCell id="czyIPTa2PEXbSXycgInY-38" value="&lt;span style=&quot;color: rgb(179, 106, 226); font-family: Aptos, sans-serif; font-size: 14.6667px; text-align: left; background-color: rgb(255, 255, 255);&quot;&gt;[Condiciones para IVA]&lt;/span&gt;" style="text;html=1;align=center;verticalAlign=middle;whiteSpace=wrap;rounded=0;" parent="1" vertex="1">
          <mxGeometry x="1270" y="122.5" width="200" height="30" as="geometry" />
        </mxCell>
        <mxCell id="czyIPTa2PEXbSXycgInY-49" value="El Recargo de equivalencia debe aplicarse SIEMPRE junto al IVA." style="text;html=1;align=center;verticalAlign=middle;whiteSpace=wrap;rounded=0;fillColor=#f5f5f5;fontColor=#333333;strokeColor=#666666;dashed=1;" parent="1" vertex="1">
          <mxGeometry x="2755" y="-25.5" width="140" height="76" as="geometry" />
        </mxCell>
        <mxCell id="czyIPTa2PEXbSXycgInY-51" value="Siempre" style="text;html=1;strokeColor=#d6b656;fillColor=#fff2cc;align=center;verticalAlign=middle;whiteSpace=wrap;rounded=0;" parent="1" vertex="1">
          <mxGeometry x="4.169999999999991" y="1984.7" width="210.84" height="30" as="geometry" />
        </mxCell>
        <mxCell id="D51pD80760HK5LYng4LF-4" value="&lt;b&gt;[priorPrice]&lt;/b&gt;" style="rounded=0;whiteSpace=wrap;html=1;fillColor=#ffe6cc;strokeColor=#d79b00;" vertex="1" parent="1">
          <mxGeometry x="773.8199999999998" y="659.65" width="120" height="60" as="geometry" />
        </mxCell>
        <mxCell id="D51pD80760HK5LYng4LF-6" value="&lt;b&gt;[digitalCanon]&lt;/b&gt;" style="rounded=0;whiteSpace=wrap;html=1;fillColor=#dae8fc;strokeColor=#6c8ebf;" vertex="1" parent="1">
          <mxGeometry x="635.5299999999999" y="734" width="120" height="60" as="geometry" />
        </mxCell>
        <mxCell id="D51pD80760HK5LYng4LF-7" value="Los clientes de España cuentan con un Canon digital, será el API de precios el encargado de aplicar las condiciones." style="text;html=1;align=center;verticalAlign=middle;whiteSpace=wrap;rounded=0;fillColor=#f5f5f5;fontColor=#333333;strokeColor=#666666;dashed=1;" vertex="1" parent="1">
          <mxGeometry x="778.0599999999998" y="734" width="127.47" height="100" as="geometry" />
        </mxCell>
        <mxCell id="D51pD80760HK5LYng4LF-8" value="&lt;div&gt;Si llega con 0 canon o priorPrice no se muestran.&lt;/div&gt;" style="text;html=1;align=center;verticalAlign=middle;whiteSpace=wrap;rounded=0;fillColor=#f5f5f5;fontColor=#333333;strokeColor=#666666;dashed=1;" vertex="1" parent="1">
          <mxGeometry x="924.6199999999998" y="773" width="160" height="61" as="geometry" />
        </mxCell>
        <mxCell id="D51pD80760HK5LYng4LF-11" style="edgeStyle=orthogonalEdgeStyle;rounded=0;orthogonalLoop=1;jettySize=auto;html=1;entryX=0;entryY=0.5;entryDx=0;entryDy=0;" edge="1" parent="1" source="D51pD80760HK5LYng4LF-9" target="D51pD80760HK5LYng4LF-10">
          <mxGeometry relative="1" as="geometry" />
        </mxCell>
        <mxCell id="D51pD80760HK5LYng4LF-9" value="Consulta márgenes de beneficio del producto por orden de restrictividad" style="rounded=0;whiteSpace=wrap;html=1;fillColor=#e6d0de;strokeColor=#996185;align=center;verticalAlign=middle;fontFamily=Helvetica;fontSize=12;fontColor=default;gradientColor=#d5739d;" vertex="1" parent="1">
          <mxGeometry x="546.7500000000002" y="321.24" width="120" height="60" as="geometry" />
        </mxCell>
        <mxCell id="D51pD80760HK5LYng4LF-15" style="edgeStyle=orthogonalEdgeStyle;rounded=0;orthogonalLoop=1;jettySize=auto;html=1;" edge="1" parent="1" source="D51pD80760HK5LYng4LF-10" target="DRrjUMENBPjv4pgYB6PE-56">
          <mxGeometry relative="1" as="geometry" />
        </mxCell>
        <mxCell id="D51pD80760HK5LYng4LF-10" value="Selecciona un margen" style="rounded=0;whiteSpace=wrap;html=1;fillColor=#e6d0de;strokeColor=#996185;align=center;verticalAlign=middle;fontFamily=Helvetica;fontSize=12;fontColor=default;gradientColor=#d5739d;" vertex="1" parent="1">
          <mxGeometry x="709.0899999999999" y="321.24" width="120" height="60" as="geometry" />
        </mxCell>
        <mxCell id="D51pD80760HK5LYng4LF-12" value="&lt;div&gt;Si no encuentra, por defecto aplica el 15%&lt;/div&gt;" style="text;html=1;align=center;verticalAlign=middle;whiteSpace=wrap;rounded=0;fillColor=#f5f5f5;fontColor=#333333;strokeColor=#666666;dashed=1;" vertex="1" parent="1">
          <mxGeometry x="546.7500000000002" y="387.49" width="114.95" height="56.75" as="geometry" />
        </mxCell>
        <mxCell id="D51pD80760HK5LYng4LF-17" value="" style="edgeStyle=orthogonalEdgeStyle;rounded=0;orthogonalLoop=1;jettySize=auto;html=1;" edge="1" parent="1" source="D51pD80760HK5LYng4LF-13" target="D51pD80760HK5LYng4LF-16">
          <mxGeometry relative="1" as="geometry" />
        </mxCell>
        <mxCell id="D51pD80760HK5LYng4LF-18" value="Sí" style="edgeLabel;html=1;align=center;verticalAlign=middle;resizable=0;points=[];" vertex="1" connectable="0" parent="D51pD80760HK5LYng4LF-17">
          <mxGeometry x="-0.324" y="1" relative="1" as="geometry">
            <mxPoint as="offset" />
          </mxGeometry>
        </mxCell>
        <mxCell id="D51pD80760HK5LYng4LF-19" style="edgeStyle=orthogonalEdgeStyle;rounded=0;orthogonalLoop=1;jettySize=auto;html=1;entryX=0.5;entryY=1;entryDx=0;entryDy=0;exitX=0.5;exitY=1;exitDx=0;exitDy=0;" edge="1" parent="1" source="D51pD80760HK5LYng4LF-13" target="D51pD80760HK5LYng4LF-10">
          <mxGeometry relative="1" as="geometry">
            <Array as="points">
              <mxPoint x="768.81" y="411" />
            </Array>
          </mxGeometry>
        </mxCell>
        <mxCell id="D51pD80760HK5LYng4LF-20" value="No" style="edgeLabel;html=1;align=center;verticalAlign=middle;resizable=0;points=[];" vertex="1" connectable="0" parent="D51pD80760HK5LYng4LF-19">
          <mxGeometry x="0.2596" y="-1" relative="1" as="geometry">
            <mxPoint x="265" as="offset" />
          </mxGeometry>
        </mxCell>
        <mxCell id="D51pD80760HK5LYng4LF-13" value="margenProducto.precioFijo &amp;gt; [&lt;b&gt;&amp;nbsp;actualPrice&lt;/b&gt;&amp;nbsp;con IVA y recargo]" style="rhombus;whiteSpace=wrap;html=1;fillColor=#e6d0de;gradientColor=#d5739d;strokeColor=#996185;" vertex="1" parent="1">
          <mxGeometry x="1036.06" y="321.25" width="144.5" height="90" as="geometry" />
        </mxCell>
        <mxCell id="D51pD80760HK5LYng4LF-26" style="edgeStyle=orthogonalEdgeStyle;rounded=0;orthogonalLoop=1;jettySize=auto;html=1;entryX=0;entryY=1;entryDx=0;entryDy=0;" edge="1" parent="1" source="D51pD80760HK5LYng4LF-16" target="D51pD80760HK5LYng4LF-23">
          <mxGeometry relative="1" as="geometry" />
        </mxCell>
        <mxCell id="D51pD80760HK5LYng4LF-16" value="[margen] = {&lt;div&gt;&lt;span style=&quot;white-space: pre;&quot;&gt;&#x9;&lt;/span&gt;&quot;porcentaje&quot;: false,&lt;/div&gt;&lt;div style=&quot;&quot;&gt;&lt;span style=&quot;white-space: pre;&quot;&gt;&#x9;&lt;/span&gt;&quot;valor&quot;:&amp;nbsp;&amp;nbsp;&lt;span style=&quot;background-color: initial;&quot;&gt;margenProducto.&lt;b&gt;precioFijo&lt;/b&gt;&lt;/span&gt;&lt;/div&gt;&lt;div&gt;}&amp;nbsp;&lt;/div&gt;" style="whiteSpace=wrap;html=1;fillColor=#ffcccc;strokeColor=#36393d;align=left;" vertex="1" parent="1">
          <mxGeometry x="1230.0500000000002" y="336.25" width="270" height="60" as="geometry" />
        </mxCell>
        <mxCell id="D51pD80760HK5LYng4LF-21" value="&lt;b&gt;&lt;u&gt;&lt;font style=&quot;font-size: 14px;&quot;&gt;PVP&lt;/font&gt;&lt;/u&gt;&lt;/b&gt;" style="text;html=1;strokeColor=none;fillColor=none;align=center;verticalAlign=middle;whiteSpace=wrap;rounded=0;" vertex="1" parent="1">
          <mxGeometry x="362.42" y="181.25" width="60" height="30" as="geometry" />
        </mxCell>
        <mxCell id="D51pD80760HK5LYng4LF-27" style="edgeStyle=orthogonalEdgeStyle;rounded=0;orthogonalLoop=1;jettySize=auto;html=1;entryX=0;entryY=0.5;entryDx=0;entryDy=0;" edge="1" parent="1" source="D51pD80760HK5LYng4LF-23" target="D51pD80760HK5LYng4LF-31">
          <mxGeometry relative="1" as="geometry">
            <mxPoint x="1740.0500000000002" y="357.4899999999998" as="targetPoint" />
          </mxGeometry>
        </mxCell>
        <mxCell id="D51pD80760HK5LYng4LF-28" value="No" style="edgeLabel;html=1;align=center;verticalAlign=middle;resizable=0;points=[];" vertex="1" connectable="0" parent="D51pD80760HK5LYng4LF-27">
          <mxGeometry x="-0.2862" y="-4" relative="1" as="geometry">
            <mxPoint as="offset" />
          </mxGeometry>
        </mxCell>
        <mxCell id="D51pD80760HK5LYng4LF-57" style="edgeStyle=orthogonalEdgeStyle;rounded=0;orthogonalLoop=1;jettySize=auto;html=1;entryX=0;entryY=0.5;entryDx=0;entryDy=0;" edge="1" parent="1" source="D51pD80760HK5LYng4LF-23" target="D51pD80760HK5LYng4LF-54">
          <mxGeometry relative="1" as="geometry" />
        </mxCell>
        <mxCell id="D51pD80760HK5LYng4LF-58" value="Sí" style="edgeLabel;html=1;align=center;verticalAlign=middle;resizable=0;points=[];" vertex="1" connectable="0" parent="D51pD80760HK5LYng4LF-57">
          <mxGeometry x="0.216" y="-5" relative="1" as="geometry">
            <mxPoint y="19" as="offset" />
          </mxGeometry>
        </mxCell>
        <mxCell id="D51pD80760HK5LYng4LF-23" value="margen.porcentaje?" style="rhombus;whiteSpace=wrap;html=1;fillColor=#ffcccc;strokeColor=#36393d;" vertex="1" parent="1">
          <mxGeometry x="1540.24" y="261.25" width="144.5" height="90" as="geometry" />
        </mxCell>
        <mxCell id="D51pD80760HK5LYng4LF-30" value="&lt;b&gt;&amp;nbsp;[actualPrice]&lt;/b&gt;" style="rounded=0;whiteSpace=wrap;html=1;fillColor=#d5e8d4;strokeColor=#82b366;" vertex="1" parent="1">
          <mxGeometry x="1900.0000000000002" y="234.57999999999998" width="120" height="60" as="geometry" />
        </mxCell>
        <mxCell id="D51pD80760HK5LYng4LF-31" value="&lt;b&gt;&amp;nbsp; &amp;nbsp; [precioFINAL] =&lt;/b&gt;" style="rounded=0;whiteSpace=wrap;html=1;fillColor=#e51400;strokeColor=#B20000;align=left;fontColor=#ffffff;" vertex="1" parent="1">
          <mxGeometry x="1770.05" y="351.25" width="249.95" height="68.75" as="geometry" />
        </mxCell>
        <mxCell id="D51pD80760HK5LYng4LF-44" style="edgeStyle=orthogonalEdgeStyle;rounded=0;orthogonalLoop=1;jettySize=auto;html=1;entryX=0;entryY=0.5;entryDx=0;entryDy=0;exitX=0.5;exitY=0;exitDx=0;exitDy=0;" edge="1" parent="1" source="D51pD80760HK5LYng4LF-34" target="czyIPTa2PEXbSXycgInY-23">
          <mxGeometry relative="1" as="geometry">
            <Array as="points">
              <mxPoint x="2073" y="212" />
              <mxPoint x="2073" y="160" />
              <mxPoint x="1230" y="160" />
              <mxPoint x="1230" y="35" />
            </Array>
          </mxGeometry>
        </mxCell>
        <mxCell id="D51pD80760HK5LYng4LF-64" value="valor = actualPrice" style="edgeLabel;html=1;align=center;verticalAlign=middle;resizable=0;points=[];" vertex="1" connectable="0" parent="D51pD80760HK5LYng4LF-44">
          <mxGeometry x="-0.9089" y="-2" relative="1" as="geometry">
            <mxPoint x="5" y="-15" as="offset" />
          </mxGeometry>
        </mxCell>
        <mxCell id="D51pD80760HK5LYng4LF-34" value="&lt;b&gt;[precioIVA]&lt;/b&gt;" style="rounded=0;whiteSpace=wrap;html=1;fillColor=#ffff88;strokeColor=#36393d;" vertex="1" parent="1">
          <mxGeometry x="2042.5699999999997" y="233.95999999999998" width="120" height="60" as="geometry" />
        </mxCell>
        <mxCell id="D51pD80760HK5LYng4LF-35" value="&lt;b&gt;+&lt;/b&gt;" style="text;html=1;strokeColor=none;fillColor=none;align=center;verticalAlign=middle;whiteSpace=wrap;rounded=0;fontColor=#FFFFFF;" vertex="1" parent="1">
          <mxGeometry x="2003.07" y="248.95999999999998" width="60" height="30" as="geometry" />
        </mxCell>
        <mxCell id="D51pD80760HK5LYng4LF-36" value="&lt;b&gt;[digitalCanon]&lt;/b&gt;" style="rounded=0;whiteSpace=wrap;html=1;fillColor=#dae8fc;strokeColor=#6c8ebf;" vertex="1" parent="1">
          <mxGeometry x="2764.95" y="212" width="120" height="60" as="geometry" />
        </mxCell>
        <mxCell id="D51pD80760HK5LYng4LF-37" value="&lt;b&gt;+&lt;/b&gt;" style="text;html=1;strokeColor=none;fillColor=none;align=center;verticalAlign=middle;whiteSpace=wrap;rounded=0;fontColor=#FFFFFF;" vertex="1" parent="1">
          <mxGeometry x="2690" y="225.75" width="60" height="30" as="geometry" />
        </mxCell>
        <mxCell id="D51pD80760HK5LYng4LF-38" value="(" style="text;html=1;align=center;verticalAlign=middle;whiteSpace=wrap;rounded=0;fontSize=21;fontColor=#FFFFFF;" vertex="1" parent="1">
          <mxGeometry x="1860" y="248.32999999999998" width="60" height="30" as="geometry" />
        </mxCell>
        <mxCell id="D51pD80760HK5LYng4LF-39" value=") / 1 - (&lt;div&gt;&lt;br&gt;&lt;/div&gt;" style="text;html=1;align=center;verticalAlign=middle;whiteSpace=wrap;rounded=0;fontSize=21;fontColor=#ffffff;" vertex="1" parent="1">
          <mxGeometry x="2308.95" y="263.95" width="91.05" height="30" as="geometry" />
        </mxCell>
        <mxCell id="D51pD80760HK5LYng4LF-40" value="&lt;b&gt;IVA&lt;/b&gt;" style="text;html=1;strokeColor=none;fillColor=none;align=center;verticalAlign=middle;whiteSpace=wrap;rounded=0;" vertex="1" parent="1">
          <mxGeometry x="1270" y="-75.62" width="60" height="30" as="geometry" />
        </mxCell>
        <mxCell id="D51pD80760HK5LYng4LF-48" style="edgeStyle=orthogonalEdgeStyle;rounded=0;orthogonalLoop=1;jettySize=auto;html=1;entryX=0;entryY=0.5;entryDx=0;entryDy=0;exitX=0.364;exitY=-0.066;exitDx=0;exitDy=0;exitPerimeter=0;" edge="1" parent="1" source="D51pD80760HK5LYng4LF-46" target="czyIPTa2PEXbSXycgInY-1">
          <mxGeometry relative="1" as="geometry">
            <Array as="points">
              <mxPoint x="2223" y="160" />
              <mxPoint x="2100" y="160" />
              <mxPoint x="2100" y="10" />
              <mxPoint x="2120" y="10" />
            </Array>
          </mxGeometry>
        </mxCell>
        <mxCell id="D51pD80760HK5LYng4LF-63" value="valor = actualPrice" style="edgeLabel;html=1;align=center;verticalAlign=middle;resizable=0;points=[];" vertex="1" connectable="0" parent="D51pD80760HK5LYng4LF-48">
          <mxGeometry x="-0.843" y="-1" relative="1" as="geometry">
            <mxPoint y="-15" as="offset" />
          </mxGeometry>
        </mxCell>
        <mxCell id="D51pD80760HK5LYng4LF-46" value="&lt;b&gt;[precioRecargo]&lt;/b&gt;" style="rounded=0;whiteSpace=wrap;html=1;fillColor=#e1d5e7;strokeColor=#9673a6;" vertex="1" parent="1">
          <mxGeometry x="2188.95" y="233.95999999999998" width="120" height="60" as="geometry" />
        </mxCell>
        <mxCell id="D51pD80760HK5LYng4LF-47" value="&lt;b&gt;+&lt;/b&gt;" style="text;html=1;strokeColor=none;fillColor=none;align=center;verticalAlign=middle;whiteSpace=wrap;rounded=0;fontColor=#FFFFFF;" vertex="1" parent="1">
          <mxGeometry x="2148.95" y="248.95999999999998" width="60" height="30" as="geometry" />
        </mxCell>
        <mxCell id="D51pD80760HK5LYng4LF-49" value="&lt;div&gt;&lt;i&gt;&lt;b&gt;[valor&lt;/b&gt;&lt;/i&gt;&lt;i&gt;&lt;b&gt;] &lt;/b&gt;*&amp;nbsp;&lt;/i&gt;&lt;b&gt;[recargo]&lt;/b&gt;&lt;i&gt;/100&lt;/i&gt;&lt;/div&gt;" style="whiteSpace=wrap;html=1;fillColor=#e1d5e7;strokeColor=#9673a6;" vertex="1" parent="1">
          <mxGeometry x="2580" y="-20.75" width="140" height="60" as="geometry" />
        </mxCell>
        <mxCell id="D51pD80760HK5LYng4LF-53" value="margen.valor" style="whiteSpace=wrap;html=1;fillColor=#ffcccc;strokeColor=#36393d;align=center;" vertex="1" parent="1">
          <mxGeometry x="1890" y="365.63" width="100" height="40" as="geometry" />
        </mxCell>
        <mxCell id="D51pD80760HK5LYng4LF-55" value="margen.valor" style="whiteSpace=wrap;html=1;fillColor=#ffcccc;strokeColor=#36393d;align=center;" vertex="1" parent="1">
          <mxGeometry x="2390" y="234.32999999999998" width="100" height="60" as="geometry" />
        </mxCell>
        <mxCell id="D51pD80760HK5LYng4LF-56" value="&lt;div&gt;/ 100)&lt;/div&gt;" style="text;html=1;align=center;verticalAlign=middle;whiteSpace=wrap;rounded=0;fontSize=21;fontColor=#ffffff;" vertex="1" parent="1">
          <mxGeometry x="2480" y="250.82999999999998" width="91.05" height="30" as="geometry" />
        </mxCell>
        <mxCell id="D51pD80760HK5LYng4LF-59" value="" style="shape=image;verticalLabelPosition=bottom;labelBackgroundColor=default;verticalAlign=top;aspect=fixed;imageAspect=0;image=data:image/png,iVBORw0KGgoAAAANSUhEUgAAALUAAABnCAYAAABGpQONAAAAAXNSR0IArs4c6QAAAARnQU1BAACxjwv8YQUAAAAJcEhZcwAAFiUAABYlAUlSJPAAACnySURBVHhe7Z15kFzVleZPZta+71KVSvuGJCShHSGxCLGYxQuLGxrw0mGbiekJZuyZif6DjpiZiI4YIsaYmJ42HYSN3W0wxgaaZjFm3ySB0I52CS1or1Jtqn3PzDm/k3VFkq5SVS6lRtXvK57y5Xv3nnvfe9/97rnn3pf4whFIX1+fdHd3S39/v/h8PvHg4VIBfM3IyJCcnBz77rd/PXgYQ/BI7WHMwSO1hzEHj9Qexhw8UnsYc/BI7WHMwSO1hzEHj9Qexhw8UnsYc/BI7WHMwSO1hzEHj9QexhxSsqDJ7/fbFggELC/2gsGg2QIcc2miQZpQKDTwLZIOG2wOnMcONofCUPZj8w1mnzqwXcj+UMAeSCSvh9SB5xC9oCkpUjsykbezs1M6OjqMIOnp6ZKbmysFBQVGSs739vbaRlkOpCEtgGiU3dXVdd4OtrOysqSwsNDKim4A0eA4tqm/A3mzs7MlLS3N9slP2e3t7WaffY5Rh/z8fMvDsej6DQZsuUbh0nMMUA+24Wx4SC14jiklNXlPnz4tBw8elCNHjhi5i4uLZdasWbJ48WIr6Ny5c3L8+HE5deqUkQ9AhCVLlsj48ePPk6Kurk4OHz4sn332mfT09BjhKysrZdmyZWYTMlFeNKgDZWKffHyHWBD18ssvl5KSErtgrqupqUn27t1r9aTRQPjp06fLggULrAEOZj8WnGcjP/eMjYZHGWCk985D6sA9TwmpIQBk2r9/v7zwwguya9eu8w8ZMo4bN87I8t3vftcI8Morr8h7771nebBPmp/85CeyatUqywPZXnvtNdm6dasRGvJTBuSsqKiQ+++/X6666qqB0iNw9ayvr5c333xTfv/735td8k6ZMkV++MMfyrx58yzNvn375Le//a0Rmt6AMrkRqPm0adMsLQTn2GA9QmZmpik8jXfdunXWgJqbm60O2KA8Gh/XQ52jew0Po4tYUgf+l4IdHiSE5nMkpOYhnz17Vp599ll59913pbGx0VR34sSJ0tbWZuTh2Pz5800RDxw4YMStra2147gBV199tSk66Z9//nl5//33zWZZWZnMnDnT6nHs2DHrCYqKiqyhlJaWDtTgC1Jji8b1ySefmBqj+JD7yiuvtPpg8/XXX7d60mvQSObMmWMN7OTJk3Y+Ly/P6k/ZNMJo0JO0tLTIjh075KWXXpKPPvrIGvGhQ4fkxIkTVj/KxDYCgS16llg7ccGnvVdauvgyssSXlim+QBoXrA9KbdKzpWWIL51zmoZ9/bTzYW2QfAb0O3nTyav7fnWZOCdRPZErQ9PYec7RU1EW+Qbsi1+/k83yDwLskEfrYZ8DPa/ZugiABwggzxwkReozZ84YGVE+FPGGG26QG2+80UiGkqFWuACQyPm2EKm1tdVa1fXXX2+kRvF++ctfGkEmTZpkNu666y7zpTmGQpK/vLzc0gPI4+pJvVFe6k6DoT4QFNXEHi4NZGxoaJDJkyeb/XvuucdIRyOgUVFXGtKMGTPMlgN1pmwI/fLLL8sbb7xh5dHAsIV7BIm55qNHj5qLRcOYPXu21SdhhHSQ29Ei4XM1EmqpF+lqM0JDYOnXsUlHs4Rbzkq4XRtSW6OEO1tE+noiBFaEezpEms9q3rMimkb6ugcI+sUg2exovnCr2u/titxPzus+x0LNtWZbeiK9q5E2ulEACB3s1zQ6TtE6SbfWk3rwaLA1Ai4li1hSDzSp+EEXj3recccd8v3vf9/cjLvvvluuvfZaIxJEoDAIABnXrFkjP/rRj4z8uBexoEKQACKjsDSGyy67zLp1Kgy5+IwGxGbDH8b+j3/8Y1PyWPvUg/zYp25Lly41l2PhwoWm5BynfNJEg3xslPHxxx/LBx98YK4G1/Dggw/Kk08+Kb/61a/koYcesvEDjWTPnj2ybds28/GxG2tzWGh5+o+Em2qkf8Oz0vUP35OuR++W7t/8Vwlu+6OpX6jumPS9/8/S9Yv/qNtfS9cTD0r3U38jfeueiZBUSRnct056nvrv0v3YvdL1jz+Q3tf/QUmqBIf0lMH9aDhuebqffEh633hcQmc+M/vBozuk54W/k67H7pHuv39AenU/eOzTiKJ/CRA93RpX/573tYzHpfdPP5f+zS+dt/WlRnSRkLBS86AhLiqMevKwUWcePN0z6gthbrnlFiOnU+pNmzbJ7t27Tamvu+46IxdkoHtHZVFN6sAnXfynn35qDQhVX7169flIRTSwiz3qjZriDqDU+OB8cpwe4vPPPzfVR4lRc9wVSEhjue2222TRokXWQKgPNsmDy0Qvsn79euthSOvcFnoR0tPwUGZUfvny5WanqqrqfJ3iwoAbEFSSQAx/uQrEsm9IuOGkhGoOS2DqYlXRBgmd2KOfjZJ+5V0SmL1SApMuF/+E2eIfN11CR7ZI/6Z/FV9+iaRdcbP4S6sleGiT+ArKxK/HfNl6DyGchCI9wcm9Vq5/0jx1d3Kk7+0nlK/aQ829WgKXrbK8pPeXVIkvS/PSUE21VaSPbpP+T16U4OHNal9dQ+1NqFvwwEfiyykSX65uWbmaP4leaxhwj1Oi1JAaIxMmTLABFsRjsPb0009bV02oDH8aZYTwEIk0sY0GAuHKoJrYwkV466235He/+528/fbb5uJADshfXV1t5bJFg+80SBSa/Wj7HCcCQl3oWSAi9hlU4sPX1NRY74D6ovKkB9jAFo1t8+bNNhZgMMKGPRoF4wSOu97l29/+tjzwwAOycuVKI7uzER80PfXPzhP/FB2PLP+WEvMmESVHuK1BuYGfrteoiuvL0TJKq5RsE8RXMUVJfZkdM5dEXQdfcZUEIPWMZSKd6hqw9atrhY+sxPQVVYq/UscupRON1FYupGw8ZWQMzL3GGgXuhZWtboWyRwmtiq29Qej0Aenf+or0735XQvXHtUFkS2DaYvFXzbbrDndE3B41bFd2sZAwqQEVh6wQAWVlwMV3VA5So9S0IMh8IUB0SMIneSEnA0SiGjQcSI/Pi98KUaJJOxxIS8PBJr0FpKQsehVUG9uUAXkpg/IBdSFUxzWgvvjQ2MF/vvnmm+UHP/iB3HvvvTJ37lzLj31HemczIWi5WpCkLbxR0pbcLr7MXOnb8rKEIVrZFPEVVkRIGVRyNquL8u6vpffFR8wdCdV8pu5Hq6YZZ4odrvs8ovjqOpAHkkt2QYRo6k+jxjYYzMy2fenTYzrQ81fPNf84uG+99O9fL+F+9ZGLtMfTzRqFqi4k7t/6R+nf8ZYdo8xwS4M2xCsk47b/LJl3P6x2Loso+iiq9GBI2P0AENZNoPBJN0wYDxIT/cCvZNCET41a8+Dp8unS+Y4fjAKjdo8//rjs3LnT1Pi+++4zxWPghhuDWkNAFNtFRQAEZJ/GBWEh66uvvmrq69wP6oSL8Ytf/MIaCm7CnXfeKd/5zneMqDRGFwGBwPQ6NEyujTIJBaLqRDcgLPeIASEuFue4NnoYPiEzDYF6cR/jVmkbdGlvdu6MugT7tEvfYr5xcMsrOgDrMFJyvaFTeyX4+Q71iU+qylZHCNp4WoKaR3rajdjhljoJHtyo7sFWCZ85qMb95j6gnigsrk2o9rAEj+9Se5qvq1XJp70AA071vYPHdkrws08kdHy3NSAjNCpOXm081oDUtw+pbX+RNqLx061BSG+nuTTh5rpIb5FbqG6QuiVx91gjB/ckaffDEQnf9ZlnnpEnnnjCiMoA7NZbb7VJFUhLJICwF4rrFDAWqB++KkTB9cBHx79du3atkZLQG2nc5A5lu/IhGAS8EHm4WCIc+OeUQ6NAaQkn0qj4DrFxmWhcNA6ATfJCVnx/ohw0GsrkOOMI6kh+jm3cuFF+/vOfy89+9jNrWDREbFDXEYOkXIqS1EirZPNl5khg1koldGXEBag7aooKyQJTF9o5/F5fYbkScJeSVgeKquqh2kOqmgskMPNKdUvmGLkYYIabzkQIRgOiMeBS4NJAaP00hVYf21883nxq/+QFRkoGgxA43Ksqz4b6ZmRFiGz59VpzlMCqzLg/odMHJXjqgO6ryxPPPUgBEiI14MHy4IgAPPbYY/Liiy+aMvPgaTGoKsqGOrMNBh44igZp3UAScAxlhGzuOMRhgyioN+4DRITsuCXU50Jwqk467KDMfDoSs0+5DuyjugxyiXTgJ3M9lA/BaRQ0DuLR1AE1/+lPfyqPPvqovPPOO+bOxE1qCM116GDMwnRKMMictvQb5naE2+pF1Gf2V86QgPrP/oqpNpD0l0+2dKKkwp8FRDb805dJ+lX3SGDetRalMJdFB22WNj1T/GWaV2341H/HzfGVReyg4D49l6aD0PTl3xTRc2FcFiWxv2qW+e40FP/EufYZDum9o7Hgl2ta6W6X0NnDkfJ4pheZ1Am7H5AW5WN2DVKhhnTHbFu2bDHl5aFec801csUVV1jUItb9QAFRPI4zKKS7h+A0DlwI1O/DDz80+7gRK1assPQcf+qpp4xINCyiDpynEcS6H7gzNBBcEMqh12CwyEQJEzLUlTKnTp1qdXXuhwONANeKe0M9qBs2uM4NGzbYBomZ/KExY4eehmgN95J7MHJoWlU+1DmMe2BuwiElVKf5xfi/6Wt/aIM73IO+j58Xn9adc3T5REDSV95ldsgrqto+CKcKjRuCjw4JIWBw22sSmLHU3JfQCXUx1OdOm7NKAkpa3I5wZ5uEcWW62swFCkyaH4m0VM6yBuZngEqDUJeGOoZOa6+SnR8pS92e0LlaSb/6LyWA0qerz34Rox8Jk9qlgZyQBqJAJvxTNgpggIU7QhfNw4VUhPwgEpXgwUMi9lFMQnr4vdihUaDGHCNqAVGY3EE98WdpHJAYFwI/HjeB7xCdvHwnBIjfDCmpJ5MwuEw0BMJ7KCyqTxoiF7hPpOUeOHCdbERGiHpwDbgpKD11g+BcP/UngsOkDqpOI6axJAR1DfwFZdbtW/lKOL+SKW3BWhuI+Rjsobjqy5rC5hWrK7JI0hbfouqraotimw/cb1EK4suB6UslbdHNkajFsV1aRkBJvcyiHNYjaHkBVXnU2waFDEbVj8dGYNI8SZu/VgKqzJKuAz8UWTebycwrMXW3CAyDQj2PnbRFX5O0mcstrDfawQ/uUUpITTq6Y+Kxzt2AfISyUEf8ambueNAcQ/3IAwkgAAM2ZvwgFPnp0rHnbAFCZXT/hMsgNPtEKJjuRhkZhDLgc5M9DFBpXLgEhPCoA3XCDr46JHMEp5G56XJIiCuBug+mrBzDBqTmWiAsJKfu1JuegnUfKD0NlePDRXwujLCRkogCpPMrcQLTl0hg2qKI6mmX7i8oNzfET+hvnArD1CskUK2kUxBL9pVNjEyxQ3pV1LQ56h/rYC6svm749H71xdXXVsUXIh/aM/hLJ4hf/XIrr3yKxZYJ0flVlQPEq9XlkAx9LgP+symvftKr+LUsc4GysDPRGksa4wDi4XBpkHuaSsSSOun11KTFGK4ICsjEBARAKZ3qYR/wSRdOOeSDIBAZ8B2/F+V060bIT0SCzVWc/A8//LAtfMKteeSRR6w812jIzz51IvwG2Z2vTn5UFuLjLkF4GgTEjK7nUKAOrh7UD1vcLxoHJKeskdgZMbQs/SfyiU2zG2XbnTe48w4D+SyNAhKqYgc/fcsiGmnX3K8ELh7IPogNBpLn87rj0fZj8KWy2EbP3YgFzwQeOTFMCakhDQ/TEYuHzgPmHLbZHKL3o8txdlBTung++Q453QCN73T1rKhjQIrLwPQ8ykvZYDj7XB8qyid1xD7bSMmIDWxRP1cmdrhmgI2R2BkZoojyZ6QFw5yHmOfBOX0erCFhHYi6LLggdtzZsOwDNuzYhcqOQbzpUwieR0pJ7eBIA7DntliQztkfLI2zw8Y5yMbm8tAj/OEPf7CLYOCIv+4UEjj7Q5XvbLs0zn68cPUEzs5XH3o/3Io9wnmD3J9LETyLUSH1xQLkQckhMpMdlwaZPIwmYkkd3T9dEkAdiYA4l8GDh1hccqQGzn3w4GEwXJKkxl1i8+BhMFySpPbg4UIYFVLjGhDiwu9l3313ITQX/nLgvDvHp4sqRB8fLF80yBNtn7yxiHVb+O7q5crlfGw6D5cWUhL9cGRzAzcmSFhbwVoON9vHZAXhOOK7TJawXBNQFnFjptaJPTMIZCKDNNSHlXssDoJozOgxUUJ92Rw4h20mQ7gO8mIDWw7UDTtETNykEPUjH5/YYBKFc9SfOjOivlBD8vDVABxKWfQDY2yQgg2i8J2G4Rb9MMPIxpoON5vHklQICyA5xOIYaz7YSAPR3ewi+dxb5YTzHKFd+aQjH2WyJgNb5MEGaUlD3TgOsZ2Su7RuDYdbx0FebJKfdB4uLaSE1KyZZnEQ5IWkrMlgahtXAAWE8JxjsoT1G5AKIkF+FiGhxqyXYA0G6yhYbMRxCAiJWeZJPuDUGLsAsrIEFXKyzoRFTG7xEsSkDMqjXkzj04BcXhoJ++5FX3oXXpqF7JTvkfrSRFKkhqysiHMKy7JMSOcmRwBkYh0IK+lY64GLQT5cAwhDl4FLwSIo91ItRIR8fHKeroW8uA4cxyb2aSi8yEsDcb0BhOenC1jQRB4I7ZSdBhDttrCPLfJAYmxQJunYPFyaSJjUEIIHDyEcWdh3pHDkgTT4uKzmc7+xASFZbAThICqr6lhchEKyofJOTSE/9iA2yk8Z2OY8+6gt57HllB1/GmLTIGg4ri6uZ3HABm4QZZKXetC4PHW+tJEwqXnwEI7lmo6UuBAM5iBgNJGc8uKmQEDSuTScc0rJ29n4tSwHxSZwjQRXgH2IjU3y0jhwdSAvdSEPx+gNsIddEEtS951PSA2hITjvS7KWBLj6e7j0kJT74RQXJWZjH3JxHFI4BYWo/H4HSg3xcDcgqItssPGGC8SCVJAN1wGVx52hQeBnk94t8YSw+M4s7HdEpkGxz1pr7FEu5TgSUx/2qRNlcY5yWNvNmzPUnzRs1N8j9qWJpN4mJx0b6ok/jGJCKgiDG0BojNAdhMPfdSThk3xEOTgHcCPIC1BZlJ/v1Ik02OMY9igPUA6NCJKSFjVnsEdaCIovj3vDeRoI52gM2EOh8aFpCLhGpKFO2OA814MNehQPX23w3Hh+jhdJkdoBMrNBMgeISyEoOHYd0ThOGZAF5aYsCMR3iAnpSI8io+rYhYwQGvKRNrp+2HMxaQaMkBUy864gMWfq5BoTcI2Nm4Atyohe7efqHd3rePhqI5bUo7r0FLvY4jMaqCZqiCpCHMgXm8bVIfr4cPUaLm1sGQ6xaUk3XFkevjrgWSGKCKB91wcIRoXU2ME2n84mn65XACgpW2yZTjmj82KLbTCMJF1sGofYtIOl8fDVBc/ropH6Qogug/I9eEgUsaROKvqRDCCy2zx4SCX+zUjtwcNowSO1hzEHj9Qexhw8UnsYc/BI7WHMwSO1hzEHj9Qexhw8UnsYc/BI7WHMwSO1hzEHj9Qexhw8UnsYc/BI7WHM4aItPfWd/5V5D8kg7H7p38N5XPT11JAZe35fQLsFt0jfjkYSeLgAIhTmX55RWEISCke2rxqo33AYDbEEF43UASVxmj9d+kK90tTTKLUdp/WzQdp6W6Ur2KnH+fkCT3WGAhT261+6Xx9WWq4UZBRKaVa5jMuulOKsMru/3Nt/K4LDGcC7ge7tJfcGk+OPS8NbTGy8xscnx1NJ8FEntc+HHov0BHvknJK5obtOTneckBNtn0tdV60067H2vnbpDfXYg/MwBPTW+PVeZgayJC89X0qUyOOzq2Ri3hSZkDdZyrMqJD+jwEjvlPxiwREXEvNisiM2n4NxxxGaDX45kqeqzqNPav1DQY63H5X1Z96Rg817pbWvVdJ83lvZyQLycn+LMktkQekSWVGxWipzq5XY6RdVsSEyJGKLlytwDXLzVj+c43uyGDVSB5S03PSazlOyrW6j7G7aYUrdqaoc1BuO6ji7nj8dH6xHs/9U3fQ7rkd2Wo4p96Ky5bKofIWMy6mUrv7OSIZRABxBjfk5CX6KYChVHgmw5TjHLwrwmagtMCqkhtC4EzXqN2+u2yC7GrdJbedp9anTbIDokTi1gOS9wV69736ZlDdNllVcJQvKlkplTpUKiPqtKVZt+IE6Q2bIA6FTAcc7VBve8T0RcseSOkVx6rCc7Twjm86ulw017xmh8QUhu0fo1IN7mhnIlICKxrH2I7Ku5h2794xVjBgpvucoNKRxv4aVKjgy8vNxySh/LJIiNTePP6IbOxu2yobad6U/3CcZesM9jD649/jTDMZ3NGySj2rfU2K32bFUgAYCIDPkSxXpYgGh3a9huTKTQXKk1oukK9xev0m2N2yW7v7I7+KNVCn6Q302qKTL9JAYIvc6LPVdZ1WtN8ipjuPSE+we8TO4EFBoXA429keK4JnT0vPRen6yduDIhQGPEilnKCRsgYEfpDzbVSN7dFDIzUShR3ozSVeeM17G51ZJXnqe+YHBUL9+RnzCsG00mcjfaIMyrA4D5UfqMPrlpgK4eTyLU+3HZV/TTnX/zphrkgy4dkfquIgWCknPpo3S8dyzEmxsGDg4PCC289uTRcKkZgTe0d8hO1SlG7vr49IFCEM8+/LyK2RF1WqZUTzbfESO8YAikZKBQP7A32iDMmzCaKB89kerux0NQGIG5jsat8ih1gNaf+YLEq8/145bEK/b0bt3t/Ss/0B6N2+U/gP7JTzwq7YjQXR5yQhKwr96muHPlIauOnnz5CtK6jo7NtKLRxW54dnpOTKtaKYsGrdc8jIKZFxepal3QWahhaxQfusRwv0Wruru71ZF6rfZSNVSK4/zyYC6MHOXm54r8ysWy+zSy5UgAZlePEvLz9Bra0i6jIsBR2B8aiZqqvOmSHpAVTZB3Yp2PeJBxz/9UqSvX7K/eYf0fPKxBEpLJVAV+T+xDQeeJxs8jAfkoUG4uiYU0uN8UMm//9xO+acDj0tXsCuuyRVH6lx1O1Dq1dVrJE0fQF9Q66C28M3ZmJUkdNWrPiL7Pf36PdSjZQflXHeT1HXUSGNXfYTgAw91MHB9QW0Y/ZrPzw1QRTMl1j/s0TtcXr5QpmoDK8gssrIbO+vks6b9cqzliGSmZRk5Iu5JxA73gGumAWAHtwUXIGQKE1EZu9mkGVD9SJrIA6NnonHicjmQhgaEXXqqRMD9m1+ySNZW3yaziubooDFT6xT/mAWCuJj0SBGsOSNtf/+opM2YJdm3f1Na/sfDknXr7ZLzrbsGUgwPnhUhPjYmabgnw4E0KHxScWoeEgMTBoivnfgXIx5dX7yAPLge10+5Ra6ffLM+0OHDRd1K8H4l/576T2XDyfdlT8OnSpTeIfPSgCAWJIKcNAgGUr3aSLhuSFSWU2Hlsy6ls69TqgsmycHGvXKy9bi09rZIlx6D0BCYUCV2IAo9B9eO/48q0rtwH4yQymtI3KMko0FSFnXISss2yrf2NEuO9g7Ys7ut95wy+jRtl94X9hMBDasqd6IsLV8pa6pvkRytk2tI8YAwG0QZzJ8O9/bYIDAc1Dr291ndg3V10rtts4Saz0nmiqsk/fIF0vZ/HxV/aZlkLFlqau1Tn1kCen/4VLs+ta8SO2A1Au4TZOannkc6KZMSUrNQ6XDLAdlY+4FsrvvIFAeixwseQEVupSyvXCV3zr5PH/gX/zPP4bCjdou8efRlOdC01+wMRWrqxmB0SeUK7RWuVnWvlU1nNsjOs1ulU8cEC9TluHHq7TIhf6K8dfSP8uGJt414N+mxKUXTpVZ7g1c+e06auhoszfKqVbJU69vc3SgbT38ou+q2K0FbZFbJHLll+rekMm+ikRtFP6dpNp/5SMvapo2jWRaPXy5XT1xrDevx7Y/KLdO+qfZWW0NAnVs0zcHGPbLu5LtaXqOp+EgeajRoSPnp+TK3eKH8xYzv6SC8wCJM8YLfDIcosQgr4fp2qZAc+1xC55qk/+RJCZ2tkRCDQu298//Lf5PM1dfafv/JE9LxzG+kZ+NHEihRN2TceAlMqFaCVxnZ0+cvlEB5xYDlL4ALzP/lgdnGREidUB/HEARC8BCcK5EIUEmm0es7z6qV+JSJB9WqyhrB0OWjyCXZZdZwZhZfpv77MplbOt+UFsLbdHPuBNsgOGma1bXJVhWtzKuW8uxxVk/UFr9/mdqZrQSep+7KPB3ocu3YQb3H5VXpmKBcFbxDattPa7mlctO0r8sNU2+VUq1DQUaR2azSxkGNS7PLtdxKJXRAjrceNReH8cV1k26yvNiNF9hA6c/1Nuk18mwSw1Bk8qmyhjvaVZW3SPc7b0nGgisk5y/uk9y/+pHkPfjXkj5vfiShKnFatTZwdUPy/8N/ktz7v2uuSKi1WTqefVqCZ84MGfJLNqyXWG69YMhiaw0SH6TqDYfUneYXo7bxALegueecdVcXalQMNscpcaYWzpAW7fLp7qcWzZDcjHzrXag+pGV/fvkiWaX+PY2ACQzqhw8OcB3Kc8bJlMLpZocyZxTNtnEB+bka0uOSHFC1fe/4G7K9ZpOReVnlVTrwjER4tMID6bXH0zK57pqOU+pKvScn245JWXaFLChfbEtNUfu4odXt1QYfWQeiVzcCpYvFcOoYqFDFVYXFjfBlZqi7sVKyv3abZN34NfEXlwykUhDNUNJD7KybbpFAWTmhL/Hn6r3HHcnJHUj454i3h4pGwk0iMmhKbtKEitM4WpScnX0dA0cB+q9/SgDKcVvER+2Rpu4GdQvOSLsqtfUUg9yAAQtSkTNeJuZPVp83Q92FdUacUvWhIWe2uhnOLo0Et2NW6Ry5rPRy9XcjLgRqRxoaBnmIiGw6vUE+bz5sJEd18VsjcfWQ1a9G67al5mN5/sDTsq9+p0VWsEkDI5JDukgd1V1QV6RLG8I5vQf0PKw1Z7BHmcbQOEHTotcLhvvs+hOhBvfzQqRKmzVbcu59QLJ1ANj12ivS/eF7A2eGRqhFFfo3v7ZGXfC3/1Oyrrte/IWFA2dTi4RJzUUnGi6KBg8BUtWZCxKR/dbeNjmlg7Td9Ttk/Yl35WX1aX+z+wn5f1sekf/98d/Kzzb9nXyiBL0QaBBs01SVJxZMNp/49SMvy/bazabKc8rmmzuBGwLJOL+3Yaf5wbdPv8t8Y4hFnUgzqWCqbbhK76PCtZvsHsxRshZnlRpZrVz+tFzISi/UqYqJFYhvCh3Vs3HdOar0KPNDS/5GrtZe4mz7GfnTkZfkbGetZCQ03Q2R6WEiUZmo4lKKwLhxknXNdZJ5zRr1sXdKxx9+N3Dmz9F/+JC0/Z9HJG3mLMm+425JnzkbH2PgbOqRmGV9aBn+DFO2ZEGkADUkRLet5hN5XQd//3Lgt/LyoeeUhC/J28f+JB+efFs+PvWhqR8DvL2qfg2dkdj4UIBcLHmdom7HZFVYCHzDlFtUMedZ1z63bIEtvg8p+Xjw/UqwT9X2rrPblbxTpEp9X6ITEB6CVmvDIFLDwvzrJt9k/jfn55YtlKKskvMRBogELAZfPMt6Co7gskDiaAVkn0gMvQRuSlFmsXRoj7W/Ybf1QonMCnItuE7ZgcigKRFWO0EYDn51J7LWrJVwX5/0bd9qvBgMoZYW6d2zU9LmzJWMhYv+LOIxGEZS/lBIiNQQJtteMSqyB8P3RIHPihLWaZdNJAHfct2Jd0wJD53bL2f1OK4JKkcMuTJvgk3SoHBDlctxehG6/cmF04yIhA/XKqlRW3xOXIkyHdRFJnh09KyNlBDejrNb5HT7CXNNCpX8NLo89b+r8yfZpBDu0uqJ18tMHSxSL+zghvAGCmnx2WkQV1QslTVK/vFaXyIZR5oPSZ8tFyVmHbntRDwYKB9q2q8NdqNNZlEWZTMjmMh9hQxZgeyBZ5OYjXjeSglU6EC6qMiIrQXaMfbDnVFruwN+8bHCT33xkYDyk0FCM4p0b8SGm3WEfaT1oJHSDX4SBdGMOaqeRCeIG88ovsw2ZvamF82ymcfpuhFmg0SQC3UfrFzcBogxu2SuXDvpBlPCZ/f+Wt44+opsrf3Y1BHF5r1JohwQHbJ91rRXDjcf1AFos+VlMNnYWW+Dv6WVV6rlsLlBbx591XoV4trzyheo61RrZc7SPFX5E2S22l5ZfY3amGc9yocn37HQHmSnhwDvHHtNFo9foccm2vhgnabBb59bvlDVut3yYZ96xQN6g+LMUpleOFtm6sZYIuKfjxw8f9ZhDLscVIkf7umWvj27xEcMf/U1drj/iDbgPbslMCESmw41NEjv5k8kc9XVg4bwokFjin7tazguAtJEzygmNk2upzP9mTbC3tm41brekUycDArKUlEgRMjAjHAUDxXiMdHiNkjcp4OfSCivRQndYOmGakx03cS9sYevjC9NlAWfmfxMqBxrOWrhOxSSkNqx5iN2vqOvTTr62/X7Ye0tDtjaFspiQmab9iDYae7WgZ2SH7Vm1pF8HDvVdlxtfS6Hmw5qA9qovv962d+4x9wJQlUQ9aiq9uFzB+07DYJ9NtZDY7tW/WqO05jiFQvuT3XeZFlQulTG5VRZo0hErSEJ9btgeA3OEK+ur7ev4fZ26XzpBen7dLuE29qk+523JdzaIqH2Ngk1NdlMIxEQwoIXAnMmcBGCJ0LqhN98Ye3H522H5J8P/KPNLqIQiag1KkJEYaL6sbySxIDrdNsJewyRgY7+af3o/unKwa66bRYHZjZvsLqSh4eJX0tXjOtB+I9j9CqoF+sjqDPfIyX5rJGSlvz5qtJMMUfKj9SxN9hnky6USf2YqSSejA2mznEZaEy4Prg4LUpypuHp2TI1P7HsLB0wkrm5p8l6AtweGmy7Do4z0jJtxSI2aDA9SmrnqowU2FpVuUZum3yXFGWUGCm5f/ECkjBNzjYUwr290rP+Q1Nh4s+BSZMt/uxXNU7T/b7t28RfUhKZsNm3R7Jv/4ZkXqVqPW5oNwRRZeLFkXok4HkkPaMIeBj13XXy7uk/yY76zdKkasZMY7zAz2Sg9fWZd5t/eqjpgDx34Cm7IKal+YR8aybdrC7ASiPZM3ueVEU8YUo8HEgP3ADOwR2PRnSawc6DoexwNDZHbFoQXZ/oMlza6PPxgHzkwae/aeLX5dbJd9q9jS4jHnDfITREGYoPuB5dr70qnS8+J+GODsl94HuSdf2NX4pV927drOefl+4P3pPce++3mHXatOkDZ/8c8K9DbUHukSJlpEaV6epqOk/L84efkgPNe0wV4wVKjXLiTzKw6+ht/0KpqYfu8GDwo4uV/Bw/2XrMVHUk/uZQJBnsYUeniT7PUfdtKDscj7UZmxYMlj6SKvJv9Pl4gOtGj7Bi3NWyavwaW8yUyIykA5ygO3dvpAzGCQaEvTu2mRsSKC1ThS4Xf2GRVv6LtOHuLvOpg/V12gh6bNIFFR8M7i1zpscpf6RIGakBXWNQb9wbJ1+2d+RwQ1DreB9INCib+sQCm3ZO993khYcIEAZEpkQHiN+a9pcyp3iBKXay94n7DbFZ3DSob61kDjY1GpF9I1jNF2puZrAj/vyCgSNfBoSGg/GoNIgldfxO8JcQNhIvKFki80sWn4+NxirWSEAe/oYaqbO89Asf2IPDwF2Twowi+y2QafkzpSC9ICUN34kd26BEU6LbwG8EhAaE/oYiNGJKOah1skiK1Fw0JJxSMF2WVlwl80sXW+A/eo3wSGFKPPA3GIY7/+8VPIMMf5ZMK5glayfepgPcQpuqTxWwj3pCuNFCvEtNh0OSSv0FCCNdN+FmWVS6QkfwhRaiG0p1PSQPFkKx5asqr668XtZW3yqF6clPhg0GVNq5BoO5hskAhcYuxE6V7aR86mig0JCYnxnb0bDZPnkVqs9+M4/Wo39m11PaRGBuhj4nXA2ePWtJKnIqZVbhXFlesUom50+3gXuqCR0N/Gr3Ngz7yagqDcW5HAwMk0GsT50yUjuw4P1cT5Psa9ol62retsEjsVO4TDkeEgfPBXFgHDOtYKYsUzLzs2Pu1bCLBQjENlRUZDigyhCZjf1k+AZGndSMwhnQMSPY1tsix9uOyuHWz+RY22GblmZpJeUleyH/rqBawFoOXmSYmjddZhbPlcqcCeZ6sKiMccbFdPV4dmxM0EDskUypQ142+MWGUsODVIByR5XUgJvsXm5l5gy1ru8+Ky29585PgUfWFXNRnnoPBu6KU2XWseSm59sMIT/hy/Q37gcRoUTeP0wFeHaO2LgijtSx3CEdGyR2G+QGyfLMATujTupooNyQm7UhfDINzSCyJxQZdHiUHgq8IRN50Zclsqzo427RC7J9lWL1PEfgSM3mjtkzHtgHqeSWAzYvKqkHg0fl+EDP52FofCVI7T2k+OCJwIXxlSC1Bw+pxJdJLfL/AW6QTjaHIrbgAAAAAElFTkSuQmCC;" vertex="1" parent="1">
          <mxGeometry x="914.12" y="644" width="181" height="103" as="geometry" />
        </mxCell>
        <mxCell id="D51pD80760HK5LYng4LF-60" value="&lt;div&gt;Solo se muestra el precio final (sin precio anterior ni canon)&lt;/div&gt;" style="text;html=1;align=center;verticalAlign=middle;whiteSpace=wrap;rounded=0;fillColor=#f5f5f5;fontColor=#333333;strokeColor=#666666;dashed=1;" vertex="1" parent="1">
          <mxGeometry x="600" y="180" width="380" height="30" as="geometry" />
        </mxCell>
        <mxCell id="D51pD80760HK5LYng4LF-65" value="&lt;b&gt;+&lt;/b&gt;" style="text;html=1;strokeColor=none;fillColor=none;align=center;verticalAlign=middle;whiteSpace=wrap;rounded=0;fontColor=#FFFFFF;" vertex="1" parent="1">
          <mxGeometry x="2861.9499999999994" y="225.75" width="60" height="30" as="geometry" />
        </mxCell>
        <mxCell id="D51pD80760HK5LYng4LF-66" value="&lt;b&gt;+&lt;/b&gt;" style="text;html=1;strokeColor=none;fillColor=none;align=center;verticalAlign=middle;whiteSpace=wrap;rounded=0;fontColor=#FFFFFF;" vertex="1" parent="1">
          <mxGeometry x="3026.899999999999" y="226.38" width="60" height="30" as="geometry" />
        </mxCell>
        <mxCell id="D51pD80760HK5LYng4LF-67" value="&lt;b&gt;[precioIVACanon]&lt;/b&gt;" style="rounded=0;whiteSpace=wrap;html=1;fillColor=#ffff88;strokeColor=#36393d;" vertex="1" parent="1">
          <mxGeometry x="2906.8999999999996" y="212" width="135" height="60" as="geometry" />
        </mxCell>
        <mxCell id="D51pD80760HK5LYng4LF-68" value="&lt;b&gt;[precioRecargoCanon]&lt;/b&gt;" style="rounded=0;whiteSpace=wrap;html=1;fillColor=#e1d5e7;strokeColor=#9673a6;" vertex="1" parent="1">
          <mxGeometry x="3065.8999999999996" y="211.25" width="160" height="60" as="geometry" />
        </mxCell>
        <mxCell id="D51pD80760HK5LYng4LF-69" value="&lt;div&gt;(&lt;/div&gt;" style="text;html=1;align=center;verticalAlign=middle;whiteSpace=wrap;rounded=0;fontSize=21;fontColor=#ffffff;" vertex="1" parent="1">
          <mxGeometry x="2700" y="225.75" width="91.05" height="30" as="geometry" />
        </mxCell>
        <mxCell id="D51pD80760HK5LYng4LF-71" value="&lt;div&gt;)&lt;/div&gt;" style="text;html=1;align=center;verticalAlign=middle;whiteSpace=wrap;rounded=0;fontSize=21;fontColor=#ffffff;" vertex="1" parent="1">
          <mxGeometry x="3191.8999999999996" y="225.75" width="91.05" height="30" as="geometry" />
        </mxCell>
        <mxCell id="D51pD80760HK5LYng4LF-72" style="edgeStyle=orthogonalEdgeStyle;rounded=0;orthogonalLoop=1;jettySize=auto;html=1;exitX=0.25;exitY=0;exitDx=0;exitDy=0;" edge="1" parent="1" source="D51pD80760HK5LYng4LF-67" target="czyIPTa2PEXbSXycgInY-23">
          <mxGeometry relative="1" as="geometry">
            <Array as="points">
              <mxPoint x="2941" y="140" />
            </Array>
          </mxGeometry>
        </mxCell>
        <mxCell id="D51pD80760HK5LYng4LF-73" value="valor = digitalCanon" style="edgeLabel;html=1;align=center;verticalAlign=middle;resizable=0;points=[];" vertex="1" connectable="0" parent="D51pD80760HK5LYng4LF-72">
          <mxGeometry x="-0.9477" y="-1" relative="1" as="geometry">
            <mxPoint x="-20" y="-6" as="offset" />
          </mxGeometry>
        </mxCell>
        <mxCell id="D51pD80760HK5LYng4LF-74" style="edgeStyle=orthogonalEdgeStyle;rounded=0;orthogonalLoop=1;jettySize=auto;html=1;entryX=0.984;entryY=0.816;entryDx=0;entryDy=0;entryPerimeter=0;exitX=0.25;exitY=0;exitDx=0;exitDy=0;" edge="1" parent="1">
          <mxGeometry relative="1" as="geometry">
            <mxPoint x="3105.8999999999996" y="219.58" as="sourcePoint" />
            <mxPoint x="2730.08" y="88.50999999999983" as="targetPoint" />
            <Array as="points">
              <mxPoint x="3106" y="88.33" />
              <mxPoint x="2750" y="88.33" />
              <mxPoint x="2750" y="80.33" />
              <mxPoint x="2730" y="80.33" />
            </Array>
          </mxGeometry>
        </mxCell>
        <mxCell id="D51pD80760HK5LYng4LF-75" value="valor = digitalCanon" style="edgeLabel;html=1;align=center;verticalAlign=middle;resizable=0;points=[];" vertex="1" connectable="0" parent="D51pD80760HK5LYng4LF-74">
          <mxGeometry x="-0.8654" y="-5" relative="1" as="geometry">
            <mxPoint as="offset" />
          </mxGeometry>
        </mxCell>
        <mxCell id="D51pD80760HK5LYng4LF-79" style="edgeStyle=orthogonalEdgeStyle;rounded=0;orthogonalLoop=1;jettySize=auto;html=1;" edge="1" parent="1" source="D51pD80760HK5LYng4LF-76" target="D51pD80760HK5LYng4LF-69">
          <mxGeometry relative="1" as="geometry" />
        </mxCell>
        <mxCell id="D51pD80760HK5LYng4LF-80" value="No" style="edgeLabel;html=1;align=center;verticalAlign=middle;resizable=0;points=[];" vertex="1" connectable="0" parent="D51pD80760HK5LYng4LF-79">
          <mxGeometry x="0.3863" y="6" relative="1" as="geometry">
            <mxPoint x="-2" as="offset" />
          </mxGeometry>
        </mxCell>
        <mxCell id="D51pD80760HK5LYng4LF-84" style="edgeStyle=orthogonalEdgeStyle;rounded=0;orthogonalLoop=1;jettySize=auto;html=1;entryX=0;entryY=0.5;entryDx=0;entryDy=0;" edge="1" parent="1" source="D51pD80760HK5LYng4LF-76" target="D51pD80760HK5LYng4LF-83">
          <mxGeometry relative="1" as="geometry" />
        </mxCell>
        <mxCell id="D51pD80760HK5LYng4LF-85" value="Sí" style="edgeLabel;html=1;align=center;verticalAlign=middle;resizable=0;points=[];" vertex="1" connectable="0" parent="D51pD80760HK5LYng4LF-84">
          <mxGeometry x="-0.0332" y="1" relative="1" as="geometry">
            <mxPoint x="-11" y="14" as="offset" />
          </mxGeometry>
        </mxCell>
        <mxCell id="D51pD80760HK5LYng4LF-76" value="equipoEven?" style="rhombus;whiteSpace=wrap;html=1;" vertex="1" parent="1">
          <mxGeometry x="2560" y="219.57999999999998" width="100" height="92.49" as="geometry" />
        </mxCell>
        <mxCell id="D51pD80760HK5LYng4LF-81" value="&lt;div&gt;0&lt;/div&gt;" style="text;html=1;align=center;verticalAlign=middle;whiteSpace=wrap;rounded=0;fontSize=21;fontColor=#ffffff;" vertex="1" parent="1">
          <mxGeometry x="2710" y="282.07" width="91.05" height="30" as="geometry" />
        </mxCell>
        <mxCell id="D51pD80760HK5LYng4LF-83" value="&lt;b&gt;+&lt;/b&gt;" style="text;html=1;strokeColor=none;fillColor=none;align=center;verticalAlign=middle;whiteSpace=wrap;rounded=0;fontColor=#FFFFFF;" vertex="1" parent="1">
          <mxGeometry x="2700" y="282.07" width="60" height="30" as="geometry" />
        </mxCell>
        <mxCell id="D51pD80760HK5LYng4LF-90" style="edgeStyle=orthogonalEdgeStyle;rounded=0;orthogonalLoop=1;jettySize=auto;html=1;entryX=0;entryY=0.25;entryDx=0;entryDy=0;" edge="1" parent="1" source="D51pD80760HK5LYng4LF-86" target="D51pD80760HK5LYng4LF-88">
          <mxGeometry relative="1" as="geometry" />
        </mxCell>
        <mxCell id="D51pD80760HK5LYng4LF-91" value="No" style="edgeLabel;html=1;align=center;verticalAlign=middle;resizable=0;points=[];" vertex="1" connectable="0" parent="D51pD80760HK5LYng4LF-90">
          <mxGeometry x="0.1913" relative="1" as="geometry">
            <mxPoint y="1" as="offset" />
          </mxGeometry>
        </mxCell>
        <mxCell id="D51pD80760HK5LYng4LF-93" style="edgeStyle=orthogonalEdgeStyle;rounded=0;orthogonalLoop=1;jettySize=auto;html=1;entryX=0;entryY=0.5;entryDx=0;entryDy=0;" edge="1" parent="1" source="D51pD80760HK5LYng4LF-86" target="D51pD80760HK5LYng4LF-92">
          <mxGeometry relative="1" as="geometry" />
        </mxCell>
        <mxCell id="D51pD80760HK5LYng4LF-94" value="Sí" style="edgeLabel;html=1;align=center;verticalAlign=middle;resizable=0;points=[];" vertex="1" connectable="0" parent="D51pD80760HK5LYng4LF-93">
          <mxGeometry x="0.1961" relative="1" as="geometry">
            <mxPoint as="offset" />
          </mxGeometry>
        </mxCell>
        <mxCell id="D51pD80760HK5LYng4LF-86" value="equipoEven?" style="rhombus;whiteSpace=wrap;html=1;" vertex="1" parent="1">
          <mxGeometry x="405.73" y="610" width="100" height="100" as="geometry" />
        </mxCell>
        <mxCell id="D51pD80760HK5LYng4LF-92" value="" style="rounded=0;whiteSpace=wrap;html=1;fillColor=#fff2cc;strokeColor=#d6b656;" vertex="1" parent="1">
          <mxGeometry x="616.7299999999999" y="490" width="569" height="130" as="geometry" />
        </mxCell>
        <mxCell id="D51pD80760HK5LYng4LF-95" value="Producto1" style="text;html=1;align=center;verticalAlign=middle;whiteSpace=wrap;rounded=0;" vertex="1" parent="1">
          <mxGeometry x="655.7299999999999" y="500" width="60" height="30" as="geometry" />
        </mxCell>
        <mxCell id="D51pD80760HK5LYng4LF-96" value="Producto2" style="text;html=1;align=center;verticalAlign=middle;whiteSpace=wrap;rounded=0;" vertex="1" parent="1">
          <mxGeometry x="655.7299999999999" y="525" width="60" height="30" as="geometry" />
        </mxCell>
        <mxCell id="D51pD80760HK5LYng4LF-97" value="Canon digital equipo ensamblado" style="text;html=1;align=left;verticalAlign=middle;whiteSpace=wrap;rounded=0;" vertex="1" parent="1">
          <mxGeometry x="655.7299999999999" y="550" width="230" height="30" as="geometry" />
        </mxCell>
        <mxCell id="D51pD80760HK5LYng4LF-98" value="&lt;b&gt;[actualPrice]&lt;/b&gt;" style="rounded=0;whiteSpace=wrap;html=1;fillColor=#d5e8d4;strokeColor=#82b366;" vertex="1" parent="1">
          <mxGeometry x="722.5399999999998" y="500" width="83.19" height="25" as="geometry" />
        </mxCell>
        <mxCell id="D51pD80760HK5LYng4LF-99" value="&lt;b&gt;[actualPrice]&lt;/b&gt;" style="rounded=0;whiteSpace=wrap;html=1;fillColor=#d5e8d4;strokeColor=#82b366;" vertex="1" parent="1">
          <mxGeometry x="722.5399999999998" y="527.5" width="83.19" height="25" as="geometry" />
        </mxCell>
        <mxCell id="D51pD80760HK5LYng4LF-100" value="&lt;b&gt;[actualPrice]&lt;/b&gt;" style="rounded=0;whiteSpace=wrap;html=1;fillColor=#d5e8d4;strokeColor=#82b366;" vertex="1" parent="1">
          <mxGeometry x="841.4299999999998" y="550" width="83.19" height="25" as="geometry" />
        </mxCell>
        <mxCell id="D51pD80760HK5LYng4LF-101" value="" style="shape=image;verticalLabelPosition=bottom;labelBackgroundColor=default;verticalAlign=top;aspect=fixed;imageAspect=0;image=data:image/png,iVBORw0KGgoAAAANSUhEUgAAAQ8AAABpCAYAAAAk9abNAAAAAXNSR0IArs4c6QAAAARnQU1BAACxjwv8YQUAAAAJcEhZcwAAFiUAABYlAUlSJPAAAC/zSURBVHhe7Z15cF33VceP9PS0PO37YtmKdztx4sSJszRNmq1t2jTQUqBTKEyBwgyFYRkYhoE/4I8Oy8DAAFMYoDAsBUrDllBa0qSx0+xxnNhJvFuWN8nal6d953yO3lFuXqQnWbGx5f6+nut7372//fc739855/e7V1mzCgkICAi4SGSnzgEBAQEXhUAeAQEBK0Igj4CAgBUhkEdAQMCKEMgjICBgRQjkERAQsCKseKl2qq9PpvWYGRmReEOD5FRUpJ4EBAR8L2Bl5KFRBp5+Wgb37pXx06el8kd+RMoeflgkFksFCAgIuNaxIrMFrWPoxRdlcM8eGTt2zK6H9u0TmZlJhVhFCHvkAi4hZiYmZGZ4OPXr2sZFk8f04KCMvPWWjL75poyfPWtmy/Drr8vQCy/Ys4uGCu+sNvjs1FTqxjuYnZy047IKeFaWzIyOymRnp8wMDcns9HTqwf8PyI92mx4YsPwvloApu5mQmgbteLViVuuFUE2cOSOTbW1z1+fOyXhLi0z19l7VZTekxulEa6uMnTgx11epccnYnerpsfvjJ09afb4XJqXYbytS18vC2NGj0vvP/yxjx4+bYGepqTKtDQcKbr7ZfB9Z2cvnpJnxcRtQdExWXp6lh0AjRAwuhCK7qGju/mXC6JEj0vcf/2F55JSXS3Z+furJ5cdMMinDr75qGhwEEq+tlax4PPV0aYy+/bYMvfyyxc3OzZVYaWnqydWFGe3HUZ10Ov7sz2wM5VRWStdXviID3/qWTmHZklNVJbGSklToqw+Q/GRHh3T++Z9L99//veRv2ybx+nodqlky1d1t9ej6y7+UaXyANTWSW1c3N46vYSxfypVJ0TJGDx+WkYMHrWHy1q+XvE2bTLiZTZJPP20+kIsBTteer33NOmTwu981tQ9ATP2PPy793/jGHMun4xIyO2UffPZZmTh/3mbI/0+Q39ipU0YC43o2TesiMKFlH3njDZv10ECuVjBjD7/2mvUvxJHb2CgJnWw48taulexEIhXy6kRWTo7EiouNNBK33mpkxz3kAM0jp7paiu6+W4ruukvyVSYgxGsdy9Y8aKCRAwdk8JlnjDxym5okccstUnD99aaCTra3y1RXlw2KAm3g5QLBbf+DP5Dh/fuNEAp27JCcsjLTRC7o/Qk1jUofesgISrQM0/39Zi4Rz0wd7Tw6kRnAVHhUYNVmOENkM2Nj9kx05kC1pJxmXunvLJ2p0ZKoF5pH3oYNEtdBMaV5UCfSRxshDNe2uqT3EQBmetO8NA1IldmHtLlGa7IyMYDIOwLKQ9kmL1wwrWtctS40D8wmBKhQ2xTNByJgpqPM05pnlraNlSVNA0MgMRtjhYWSu26dtT9loCyQIfnRlrN6j9mTtkgvF+1FfSa0TJSNcgGvA/XkOWW29tP2seeqIVEe2t3aRQ/i0xa0lbVxKszwK69I8qmnrI4QBvUkfTQtJqGclMaEJka56V/Gw6yWf1onDysHpg/10HvWxmhoTGq0qeZHjegP+ne+PFoW6p+t7WPhtD0hMjNRtZ6kxXPvM+tn2kLzJ6xPZjyjX5iy0E4Z4/wmzbHmZksj77rrJE/7IMZYpZ31sLajTbWNqMeEjslprSP1mR8jqxTLXm2h4u1/9EeSfPJJG8xljz4qZZ/4hORv3iwdX/6y9H7969ZY5Z/+tFR+9rM2IJajfjNjtnzhCzKu53wlopqf+Rkp/fjHJVvjNv/oj2pP5cg6zReVlhm256tflTG1K+lkTKQyDUv4mBLOgJat++/+TuJ6n+fjavbEdUbI37rVSA6CGt63z8yjkgcekPJPfUoKtm837ebcr/+6JG66yfLBhKBZEjfcIJVaBso1pcINmdHxzCzUDSFgpunRug+p1mRaiwpM/pYtUvljP2bnbM0rioFvftNWqiBghApSzC4osMGduPFGqdb64wfofewxGTt0yAYwz0ruu0+K9SDPKHr+5V9MZaYeJR/5iOVpWpxqUpB5jgpnTAV2Rtuj6I47pPiDH5QCrVe0bwaff176/v3fLV/6GUEue+QRKfnwhyVXtQLarf9//keG1TyiPDEVnqI777T+L7ztNunXOmE6kR+EBwEgPCX3329lpp/6nnhCev7xH61fivV++Sc/KcnvfMeEs+yjH7V0aNuuv/5rI3MILG/jxjmy0DjVP/VTNvPjmIcUEN6y7/s+mVWhHHzuOen6m7+Rih/8QSnXgzRGte0gS8pEfjVf/KK1Pdoswk6/mImtbZ/HRKh9X6KTFOOx5x/+QUb1jKnFuLK20HrEdGLBNIHsG3TOZeyjLZK3TX7a/5iNjImKz3xGctesMU2944//2OpDWkyGjL+ETpLVP/mTVsfVimXRHqxJI9AhEzrzwJYMaGw7OsAYWRuHBsKRmtSBS5xlgRlVB1pcZ0wam7gMRATRhCs1yBG2wRdesJkkXxu86PbbrRwMNGY0Zjqe8RsBYNAThsHJ7AzxMPgKd++28kIQZibpzGEaiJbB/Cs6mBAMyoI2MKBp498hHPUfO3LEBjlqKoMFR/G4PmcWQfi5zwyNYBBvHlpPfDjUjwEKAaG5oSkwk9sMqOkx43p542o3Qxach3TAkiZ1exe03KYia1tZ/bWdGMi0P+o1QsbsMKJpkq9pXan5glmRdoBQIWQIH42AdmLmpc8nVfiGVGsYUe0mV2fWog98wAa89YeSDlqgOT5VIEnfyqz5IijEh8TMp4EvSdOlXZmd+W1agMaf0vYkLsQwom2crQReqH2HVkIY2gISoJ3wj0Fy9A31MF9Eqt8Zm9bOmiZ+LMKaL0Xz9VVBJhTIM7Frl8R07GIu0q/0GWe0OMpihIJ5omWZVE1lVOMzBmgPtEU0DfqXCYuxx5iEmCFqfDpJ1dBpF4iOtqJvaBtIEuKiP2kf649VimWRB+zKno4pnVUQGGCquqp3dq0D2lRDFUIGIWGtc5cDBoDOLDB/8Yc+ZB1najwzGGZBijwgFAZIgYar+7Vfk7W///umOaBiMqthaiD4DEpsT2YawpTce+/cDKThSnUGWfuHf2j7UhB2Bj/xXXXEXGL2afzd35X6X/1VydfZHIKhk5ktUEfjOvgZeBWqYRnZqRaBEFL2atWgyn/gB8yRNqRpQzQO8qdurFRBuPW/+ZtWvqrPf35OXdY0IGDyGtMBzaBDu6v9xV+Uih/+YTMHGHBmDiwA0mCw0nb0B+VZ+3u/J/WqUTGzQ5gQTVTjID931iKotb/wC1b3Kp0RqQNmDM+YEGjDul/+ZVmnsyhtA8zXomUlHTQ24tAGjZovaaC9QQikja+gQDVANBE0Gkg8p6bGBIkJAtKANGnjqs99zspe/dM/bSTCPVPxNRxmDwf9YcSphzuKrY6KLD3Tl5AhsztCDaEaQSoBrvmt35LGL31Jqn78x+cczPS/HuQPgcQqK6Xm539e1qmmSRmol/uTrLzkr3lAPGgzTFS1P/dz0vg7v2OaKtpk8tvfNrkhnJmjSkRoT+TLuDXyUcLFRFutWBZ5IAQwqQmadhSDglmAWdLsfLSMVEeifcDizMjMAEsC8tCDTmQ2LlbVmsHf+6//aunYIFEgNAgY5gd+CTqbWZl45v/QzjBoGWB4dr0SxjQkDW+2qA5wiILnZgMrAUKGZm5oPMwT0gcMPMqD0FJvniNAaArFqpaSBr+ZyRgADLyuv/or8wkRntmOPBxGtjqLIgDEpTwAswqnM7MgWhJ1Nptdw0OKXX/7tzKgAxGfBnHsmc6A70Kq7XlGHpa+zpwmbKjlGzaYJmDEoW3tME1HZ0Q0POprQqFCinYBwaKqm8+Aemt7QgKAMz4v0qPumLHE5T75ocXlshKhY8UmllT7LgrKruWmzraKoW0MqAPOVIsfKTfp04+U27RGLbPBw2h4G09qwlk5dQwxfiAhBJ0JBkD+jA20BepIWxCXPuYe5SpULbRCzXBMNEiKMQhMU9V+RhOxcmr7gVw901amKWm7EI5yoQERDkBs1j5ah/lxuwqRkTzQCFDNmC0hAtMEUh1lzihtIGYnU/1T961RVQ1FXR1RZl4WtOMAXnhmJRp66KWXTBBsVlDA4AwWBjNaiXWc5k3jm4OKcAwyPZiBCDsXUWcmHdBOHAxEIyR9Tv3M5aNhuG+ESNo64HGqkb/NNITX54RnUBkxAU2DZ5aOlsPaQNPinKMCDIE4mF0hE0QIIafspMngMwGjbfWZlY1y8lvPNvi0fSg/7WMC7nUDlF/T4UCQjBRRr7WdqI+RuWqBlDEqgAZNG1IiP/qMtkWA6WtbJtf4+ATIjzYxJ6YC8wB/gLUtdaLtudawngftQtlN2FLlQ0CtHBx+j/B6EBfhpF8ZV9SB/G3Gpw0U1I/yWvtpWczxrP3EGLR8UuHIx8KmtBE7IAjNlzgWXsNgmiHgViaNS9pWV8aWthmTIuRIWxiJUmaQKjd9RbpovZYW5cKhrG3FffqcOF6eeTBu9LmN2fQ+WUXISB4MqP7//V+z2WhcG8gp0HgMTDrYGodZjTA0mAqS2a/4HzSNJeHConGL7rnHzAXTZrThPU/UTQbDoNqt5hNQQhvQspE+pgwdb51LWt7JKVBWu0dHcaTSdSF0oceut12zKZsVPwEzCmor8Yx8SI/BpsCxiP2M74fZHZMFmxZ13GYvFXgHMz9p2Wyt6izp48OhjbDPTSvRAUU6RhIqTJgeOINJEyclggxxWVs7aB8OLZ+ZB6rFMIAp+5Cq6viDIGLrB+qeak9AOnmbN8+p4Kquj2q9CYsTtv1P/9Qcu9bu+EBOn7ZnSTVJcZxigiEc1N/q6e2bgrU3eTnReTn98HspsFKEc9d8NmpKjWjZ+x5/3H57P9HHaAsIN+YdZoOZGtp+NgZ9AkMoFdxjXEFw1ANCMr+Gpo9pTX0gIQiTuuAAdf8I2vawPkcD7vzyl82hjHlm5E65tX5oGAWq3VCOpI4byoS5SluhQTEOrF0oT6Su1k7eVtH7qwyLL9VqpWlEVlHQPqyKqUajoQtZaVD1NrFz59zAwy+Q6jQaBgJhJuFA+GxWWgAMBEwcVDrsQlRKU0V1wMDoqHfYrGy6YfCgGZg2pHY4AkEcVlwQVoQSxx3hGQgAIoDg8FXg1EIImVWYTSABloFto5aSnQs39jE7Bd3TjmOTsCw3okYXa719NsPsME1FZyjai4GDJkQY2wOTqjf1mddgtG2og61uoN2QjgoOZgnOWoSRQU9aCM+E1hlSKVISMdU3MuCoL74oNB1WXFDVbcbW2ZsVLFt2hoi1T3Ce8py8KA/9RXtQJmZWlrbpS+JDCvRvAeQCaWr9yYt2R+BoK7RE+p/f9AX1xuyD/EjDfD4qwKj8/CY+REs/YFpBEAgkeXEgjIRDK6PsgP6GWIt277b6QZ6mcShB4qzlWrSt0ISL777b8scXA3lhouRjsinJQwq0KeEgPicNBJtwtK85UTUcfYKzFc0Zc4d2w3zJ1XajfdCGSu+/39rAHOQ6nlxDp6yMvfJHH7W2JixETjsVavpWJ9WWKDuEyXhiDK1GLEoedA4CxeyOam2MCynoIGIwMQjoFFRQwjEw5hk1ddA5rCLQaG5npoP0UNthamZNBAmSoEEZ4AiL+TmURGz/hw5G63RN3xxw995rzjcIx9RFLaevUADSJk1mHtMGNG18C2ge2Lt0KmkxsFhpYOAjSJhOlJslXQgMgWfmYkBwQDLkaVoJZVIBhQgRfAa5OQQr3v2mMWWz5UElHoQNAiI+ZWAgMpiIS5iYko6ZhFpXygmpIGDEiYKlSspBXNqPwWiaidaPtqfsJhy0o6bNtfk/IHoNA7mZ2adtjWDRLghcsWqAtKOVWfuOeiHY1JW+xx9iddRntAvpINimqWh69CvEAFGZ0KTGBOUwv4OWgfaivY3QtJzZqjmwJ8LGmNYTIWTsQaKQMRomBOMzOX1i/h3aTs/0H5MEJpX7GCxdrYONK60D49iITq+tzehPzQfiNm1BxzQaDGMJiqY+jDH6iPuMJ8rOb+pBvpSDfmAM0XaQLgftwLjgPkuzpGV9pu1FHfhN+aLm7WrCovs8UAfZ/8Aavtv+89COoyFNTdRGsMbTBkoH93FYNf3Jn9jmrwWhM4QJs6bjgx6YyskgIi+/z6zNoNRnNhiJ4+UgDs+Ig2CrMPg94llYPay8/Oa+poHg8Zvy23PikL7CZudUHRcrJ/B8LR/KS7y0MPMgL8Kn8rDwqXy9PkZmnma0ntQpLU1LhyOVr9UvGpf7etDJlg9l8/wcC5Up0q72XJ+9K00vTyq/aN29vSxNDW+ORuIRLhLGxwy/cTyjJaLBQkqQJT6Ezr/4C+n92tdshaT0Yx8zErCyEDdaP732Ms8/0zwsL30OvK3snIpn4ExY6qvxiG9hPA2vq8LbiTpZPRcKr2Gt/wlPfvrcy+b3rM8ISxocqxCLkgeqIyqqOS5V9fKKW0PTYDRiatCYmUFjRZPSa+IwE1T+0A+942SMgvDegQHf00AbYI9F37/9m40n/AWYD5gEaAu1X/ziezbILRtXyzhz+bhGxnzGHaaozNjxqHAXzY5KKqhjDALUbgZEQEAm4DdgdywOUEwa1PuCG2+U0ocfntvhqeZCwNWDzNvT9ZGpZKikK8C71OSgYQQsAcYapgpOSiYuJhwmIEjDfD2rVL2/VrHsd1sCAq44GKphErpqEKg8YPUgEMdVhUAeAQEBK8IVN1vIfnR01I7p6WkpKCiwIycnR5LJ5Px9wsXjcSksLJR8tX9jqaWzhTA1NWXHzMyM5OK595WiDCCPQbW3Wb4rZf/KIhgbG7OjWG1x8hgYGJCSkhIr00rg9Sdfyskxv4SYAdRtaGhIxsfnvr1Bu+Tl5Vm7UJeRkRF7zu9EIiFF7OVQUGbadWJiwvKi7LQRoP7UjTIRh37I1M4B39u46M8QXmpMTk5Ke3u7dHZ2Sl9fnw1qhIDj9OnTcv78eent7ZXu7m4TMgY6zxYjBAY+goMgIDyEd+HgGVhIOCkHeRG3vLx8UQGmLG1tbVJWVmZhm5ubTTARNpApj4VAfXt6eowEiENZOS+VDkLe2tpq7UY9Ce915XdHR4fVB3IDECJp8ezs2bMWj/JDesSBjKjXhQsX5uPQxl6egIB0XFHNgwELYZw6dcoEluPkyZNSVVUl1113nbzN9mCdRTdu3GgDmIPBjAaSneZ5R/gQBoSKZwgl9xoaGkywERqek0Yl746kxacsXbyQpWeIwfODqFyTIV8EEiHbsWOH/UZIKS8zP02J4FEGfpPvQjM3eQwPD1v5OCgr4YhD2Vw7gNBIAy0nCtKHxCBdwhOPNqyrq5O1a9fKW2+9ZXmsWbPGwnFNOM8TwuCgvJAy9YBcyJNr6k8daaNt27a9p60CAsAVHRUMXgYmM3d1dbUNcAY3GgZAeBAkwrgwpxMHggEpIAQQEdec0Tx4hqBBHAg1zzgQeAQpCk8TQSauh6eMfo/flA9CA5THz65B9ff3Wzi0CdekovzMb9LmOWlSDsJRTjedSIMz7YBAQwCk7yA9tAIEvqamxkiXPKknaXCmTLQpB23meUC+tDPxMFkISxmoP78JX1FRYflRzmjZAwKiuKLkwWzLLMfshiAgmAxiBIMzwo/gHDp0SN544w05evSoCQGE4nAyYKbkmhmVMAgnAsQ1zxBIF/YTJ07YvSgQEjQPTAGEhgPBAggd8fmNUJEO5UPozp07Z2eEnfIRBgGl3JgApOnlJQ9Izk0x0uGg/O7bwVSjbLQF7UA5jhw5Yuk78EUg5Bs2bLBrwkIQAHLinvtgIATImbaBNIiDJkPbEg/NCvKpra2V+vr6eV8O8DQDAhbCFddHXYAQHoQNNZ3Bzj3MgaamJjNhNm/ebDOiE4HDZ2ZmUlR2BIF47vSEPLDvIQAEkN8IOL8RoCj4jQBzpD8D0VmY8vHbtQUEkTw9//W8canCDzG41uAEhYBTL8wM6gQRUG/CUT4IA2HnzG/qGCVM4O1GW0Bg5A0RU25/BiA5rrnPtYNytbS0WP60nYN8IVdIBTLxdAIC0nHFyQOBQpiYkRFCBA8BBMygzJYIGQMZAUFY3KwBxEVwmTF57uTjMy8kQRiEwR2tnNF60gkCQeE+M64LnJ+jZgOg3DzjQLAhEcrreVMH8qKsng9xKA+gXoRz3whhvS1Ik7QoB/c5ooIPPC00LDQfCIg0CUdZKQ+gbVwzIV0AedKOhKO9KTPpEY5+gKxoS7SR9HwDAhxXfGQgLMyADGYECaLgjMBxj9kXMNAZ3JgEUSckRIAQEhYhAgx+4iEQPGNGhnxwvKLBIBSQDUIZBeFJG2F2QQYIKekhkAggz6IgPMKJluDkgDYEqSCYXl7iUjd+ExaQBwLLjI+gUl4EGm1ry5YtduZ3uglB+OPHjxs50WaEoS0IRxmcYMkHUiZfnlGPw4cPW1438M0OLR+gfUkPMkIrgozS2ycgIIorulQLQSDo+AAQfIQNoXAh5jkCy4B3YWRG54BEAAMcoWA2JS3SQXC4j8Awg3ImXX/OM3wBzO4OBBuHJ+fGxkYTQITOiYMykS9nyoSqT/nIF0EjLdJGCMkHMoMICAe5+AzuAkmaHISlXpAZB2GpO2nxHHLhHuV1AiEPSAEzD0IlPmWl7LQL5aOcpE0a3IMwuQ9RYTpxzUEY8iAddyR7XO7TdqQbEJCOK0oeCAGCzoAFDFqEkcHqwoSA4rNgcCOgCDZC6UCgEC6Eh7iEc2EjPDMywoPAINAIBCTA8+jMSj4ID0KO7wTBgnBIk3uQkMchT64pp5MKefGbuiB4xCFvDicOnlM2zpAhaZMvfgc3uUiLdqHOpENepEH6ng51pGycyd/Jg7KRDu1G+akzRET6pAERetnIl9+kAQhHvqTHmfRAtPwBAVFc0X0eZM0g90HrYCAjNAiZP/f7rnGkA1IgLCAcA574XJO2P+ceaXOfawfP2VdCvJ18XSx1DyEjHPcRTtLinl+TJteEQYj57XE8n3R4nQhHuhxeHq5Jx+vMb9Lh7CAeaRDO240z4TiAp0E8ysfhcYjv8TxPDi874DllihJ1QEAU4a1aBdoPmgCzLbM/mgdCFRAQsDiCPqpwvwaOVXwDgTgCApZG0DwUqPLY/phEboIEBARkRiCPgICAFSGYLQEBAStCII+AgIAVIZBHQEDAihDIIyAgYEVYlsOUPRDseGQlgh2QvIDFBirusbWc1QpfoeADNOxyPHPmjC198m4GICxvxPKb+wEBAasby9I82OZ88OBBO3ifAsA5bK7iGS9avfnmm/aMbdPsm+C7GLwqzvsi3Oc35MGzgICA1Y9laR779u2TvXv32tbl2267TR588EG7z280kKeeesreG3nkkUfsPQr2TEAcaCW8iIVmwjsSfOOCzwLynkZAQMDqRkbNA3Lg7U2EnzdHeX2ba7Zxwzm8D8G7D/4OB+YK4NVwXmAjPDs3eQGMMLwWH4gjIODaQEbyQKvgs3hoEvgy+G4EpIFGgXni4B6Hv8wFIBVe5wb+ghXvjQQEBFwbyEgeaBmYH/5dT3+BDGco10uBMGguvOpO/ICAgGsHGcnDHaJoIPgy0DxYVYE8MEUcvMrN4YB00FgwbzBfeNmMe8Tz70cEBASsbixptmCOQBx8vo/P1uH45IM3URKIfkcC8IwvfkMYu3fvll27dpnJwtfFgwYSEHBtYNHVFneMYrLw1Sy0Dhyk7Ndg6XXdunXmRAX8wSGWYPnmJntBII9jx46ZzwPNgyxYdeEI+zwCAq4NLEoe0S9V+WoKYAUGouA3RMEZ84b7/ok94qJhsOriTlOcqdzjE3ncDwgIWN0Ir+QHBASsCBl9HgEBAQGLIZBHQEDAihDIIyAgYEUI5BEQELAiZHSY8oi9HizRRvdxpINwrLZwsPpC+MXgqzgcfHA4U7oBAQFXLzJqHizJHjp0yPZ6ZALh2LbOOy/+l8YWA8u17AHhLd2l0g0ICLh6kZE82JvBlnI2d6ExsEGsubnZ/iDyyZMn7T7gjyOze5RvenAfgkAb4TV9wkIWxOUe6bBDFbIJ3/YICFi9yEgeCLr/lXXeouWjPwcOHDCi4E8z+hu3/rIcxOLf8IBQuCYsW9X5S/iEI01MFUwW33gWEBCw+rCkw9Q/L4iWwDZ0yIJ3XNgpyktzaBWA7ep86Kepqcm+4/HSSy+ZtsHffb3lllsszJ49e+zLYuxMDQgIWN3ISB4Qh5MHzlCIg+9y+Lc90CDcdOHlOd5Z4fumfPDn7NmzppmgbaC9QDS8mk8amRyqAQEBqwPLkmJ8FQg82gZaBQQCefCGLWYIz32Vxc+QDQ7RV199VV5++WW7Jj7mCuEDAgJWNzKSB0KO09QJguVVSAGgkXDNPUA4tBA0DbQLXojjOx78xXlMGj5ByJfXMVl8qdbTCggIWH3ISB5oEZghaAz+Zxe4BmgXmCe8rs89yIK3ZSEOiIHvf3CgnXDgD+F1fMITj7TC27UBAasXGTeJQQT4LTBV8GnwSUJeu+cbHThQ+ZoYZwgG4FCFcAgLObDigu8DDYNvf6CFcM3qDcu53POPJgcEBKwuZCQPBJ1vdUAIOEchCq7xebjJwtk1CMiE3/g10C4wZdjrQRaQDiTENfc5iBdWXgICVifC9zwCAi4zmFA5EDUXN3yGvsBwuTE9MytTM1oOz1uP7OwsielFTM8rRSCPgIDLDDRydlWjubP4AHGgyeMn5EBTv1yYmJ6R/tFp6R2ZkpHJGSOSuBJGYV5MygtypKpw5Zp/II+AgEsMtAz2NuHXSyaT83+C1c18yAONA9LABYA5zx4p/H/+2c73g+GJGWkfnJC25IT0DE9KcnxaRidnjUiQ9mzNPzdHCSSeLaUpAqkrzpU1JbkSRx1ZJgJ5BARcIiBK7ufzP7fK1gVIA/iGSwdEAongH2QrAwsRbMCEUDBpLhaqVMjg+JS09I7L2+0jcrRzVLpHJmVyanbePKEISLwLfY5ms6Y0T7ZVF8jO+kKpL4lLIjemBJMKkAGBPAICLhHQLniPixVGtA0+Z4GZshgQvajvg0UFVin5KwQQycXiePeovN46LMe7Rs1UmVRNA1/HrP7LMk/HwkDbKFAWKVZT5uY1hXLHuiKpSsSNaDIhkEdAwCUAJoq/HMoWBcQKUkjXIFzcoloI99wXgtYBcfBH4dFClrMaiTlyqmfMiONQx4h0DWMezSopaP5LEAClISxaC1hblis7Gwrl1jVFqoXkZowfyCMg4H0A8UHD4FMUvHHO3iiQbqIsF6QH4dTU1Mjtt99ue6iWSuv8wLh843CfnFQCGRyfNhNlZblDRLNSrGbLR7eWyS2qhdQULf6xros3rAICAuaBsPv3bfwvLPp9tAn8He4oBRADZMDv9Ocel9/4TficBW+mZ0KrEsfBtmE53TcuQ0ocOEOXQxxoGpNKFKOTMzKutg2rMOSOv3RcNZkXzwzK/vPDMqVhFkPQPAIC3gcQcj4/wV9RdEAQmBuspnBGxFhFYVWF3xAFGgo7rXGwQib4S7jmGQdpYMLs2LHDPoGRbv4A9m1891RSXlZBPzswYQSQs4SdgrQj8AXxbCnLj0lNcVwGRqelc2jSSEOzVlZQDUQJ5ab6QvnE9nJpLM2z1Zl0BPIICFghEH5WVfhUJyTiRMGZ9714/QLCQMPgLXRWVCAByAGHKqsx7P/gHuTD8m5UeyGe/41oXvlI31CWHJuSxw72yCvnhpa9xIrGQch6JQ3Mkgc3l8mxzlHZ2zwgZ/rHTRPB7JnUgHVqsuysT8gH15dIbfF796IEsyUgYIWAPNra2kyLiPoluIYQOPvBfg9WYXCqcubbNv5xcZ5DDB42ChyxfEALrSQKTBR8HD2jU6ZxLAdTGi6mEl+RyJEsPY+rSYIGwgoLJFKUF7MwAC5ixeZo15j0jy28YpSRPLCCJqYntIDdcmbglJweaJbO4Xa1kea+PTqm5/OD2hjJFjmXPGPXnDuGL2i8cZmenZaRyWFpGzovLf0nLdzAeJ8W8N0N4ZiemdK8ujSN05YX6YxOjdiz/rE+Tf+stA6em09jzkqbw8zsjIXtH+u1g3wDAi4n2DnKR67wUUTNCjQL1yDYSco+Dq4JD4lw5p0xnmGaQBhoGRyudTihEBa/x3vIY2LaVljcQZoJpEiyaCf1qkHc3FAo6yvybSWlWdMY1rSK8rKNMFyi8J2MqenSoeZMvxLUQshotkyqgLapwO5vf1Xe7jqgvydkU/lWubPhHtlaeYORwWNHvipj06OSm61qjWY4OT0p1YkaeWTTpyQRL5RTfSflpdZnlUDO2e/d9XfLjdW3SF1hgzVQFN0jHbL37FNyoveIpjkmTSUbZHfDByz83jPf1nK8opWbkVtqb5eba3dLeX65VnJOlRtQcjmn5NWq5YVUSH9L5fWSyHn/O/YCAhbCwYMHZd++fTaO08mDe+zX2LBhg+3fgAi4HwVx0Fr4Do5/JByTJwrisPfjgQcesF2ojtO94/LE4V450zcuw5NKIGmyFMW0irjqN2p6xGV3Y5Hct6nEzJOT3WNyuGNEnyh5aZjDHaNGSu43waGKr+Pj28rljnXFUlGgGkskm4yaBzP4Eycek6M9b0tNYZ2sLWmye0+2/LdcGGo1MqgoqJSqgmo7F8eLpVc1h+a+41qYGY13SB4/8XXVEqaMCCo13Jud+5VMvmtaSRRoNtxv6T8h+TkJ2Vi2RcnptOy/8LK0D7VJXk6+5MZy5WTfMdNkJlUjgjjQcI50v23lhGDQfE70HrXrf3r7K5rf60Z6US0lIOD9gPkWB2fUPxEF9xB6iACtw99hwf+RfqB5QCzEWSgttBHy8SVgB3s7+lQj4AwxLAbMEMigTonjrqZiuW1tocptTCoTcWksyzOCYKXmhBIJaUVJiEuKhHbDkV66jOSBgHaNdEphvEhn+92yo+pmvZslBzv2m3lRkV9lWsAdDR9U7WCXrCleZ2FhXTSR0ckRNTH6ZUPZZrm17k5pKt2opNMmx3sPa6HezcJ9Skrtw21SmFusWsVtcnfj/UYMJ/qOmvmypnitbCzfoubIkJkkmDhjU6NySsnmlbbn5IXWvdLcf8xICaJJTiTlNSUeng9ODC7YMQEBKwFjCWHGXEnXngH3/EC7gEQ4QxLRg+dOHB5vIUBEmC3RMQwp8KKb+SgWiEZIDoijtiguN9Un5LZG9m3MOT55xoqK8oURAy/OcZ1eBH6ylIumko6M5FFTWC+/tPs35LPX/4SZAeMqzFSgSs2SWLY2SFa2bK+6UXaqsDeVbrDnFQVVsr1yh2oP+XLvuofkN+76kpELAo3gF8YTam5UvKeUDUWNctea++RjG75f7lxzjzQoWSQ0LJjRfw1Fay2PWHZc2TFmptJbqlXsOfOk7LvwopTlVShJbTHt6NFNn5bP7fiCPHTdx6U4t8S0paB5BFxKINCZJiSIAIFHQ8kUjnQgoUxhAOE4HITGUZryb74H7kRlk9etaqo8tKVMKlTbcLzZNixPHR+Q5t4xI6GcGGSXepgGSIVdqOnISB45ShCQAebJucHTcqBjnzkr8XsUq4YA8mJ5yk7YTNPmq4A0bqrZpecCE3LMnZGpYTN93up8Q4rzymS9aiIQTxSldn+jPctRgjirZsyoahZoMtUFtVYWz4uOwSzqV60GrSQ5PmBxN1dss/JiHqHtQEKbK7Zb2sQLCLhUcM0hE1zg3w95+H3XVhw4NNEqOEdBaLQRnKMstd65Tq2GBjWZcufiYprg59h/fkhNlVF7A5eJNVNNcMgu5JTNSB6O7tFOMyk4JmYmpCy/XOIq4A4yxy9xeuCkOSi3VFyvZsvc18XQRjpH2s1H0q0mUH4s34RZW8WeO9BMIAqA3+OVtueVfLJV21gv9UVr7D7OWHKbqwa5UnG8yLlGGGWq0ZhWkloNWltynazTg2fpZBUQsFJAGmwAY7UkExD8qLawEAgDeRBuITLiHiZPel4QB4TAtzmiokQKPKspjMuOuoTc2VRs76g4zvaNy7PNSTncOSoDY+xIZVn2vflGwXIuRzoWlSgqhRAys5eosD+8/vvlZ3f9ipkkL5zbY85Mx9mBFlt5qVYtY87cmFvhQCPoHeuR66tuks/e8BPy+Zt+1nwbz2v84UWWUnF2vnB+rxzqPih3NX5IPrz+E8p6c6zpbYQWQWMPTQwqk+LoGTM/yuGug0ZSDlZgepT4kqqhLMbsAQEXCwQaRyef0YyusqQDs2Uxp6pjKc0Dfwl5pX8wKFc1i/JEjq2GeFwsCzQENoChcTy4uVRK8t9ZvTnQOix7lDjMVFGNY6klXtKD+kryY1KWttICFq05DTSswvn8+T1ysOM1FdSkmg35Zi6ggeCsdCC4zX3HbIUEpykgPs7KvWeelPPJMyb5kEr/eK90jXTY8341gXw/B9rJke63bKmW9DBTCmIJ27+B03UuTZadpmVyZsq0jetKN6mWc4PUFtZrmS5ImxIH5TqTPCWvt78q3zr1uBzrOaxm04jpKQEBlxKspLBiEnV6RgExcGQiGECYxeKTB0u0kEgUaAKNZblSqNqHv37CciuayLqyPNlUVSClShzIOw5PXtPf3zpkZzaYobMvwR2qkWg+Odn2xbFSJZD04BlrhVPytQsvydOnv2mOyefPP6NC2ipViVpzRAKEssUIoM20kvqiBrsP2HMBeRD3uXPPyBsd+6yRalVDwUxhifUZfXZStY3DXW/Ky23Pyb4Lz5uvY33ZJssLp2jr0DlLD5MkJytHc5wxZ+quutvlvnUflp01u211B6KJ6XN8K99s/k8lj/9SImnRmEu0UkDACsDyK39WBJMCQU8H93zzF2Ds++Hwpdj0+B4GcmKbezp5YLJsKM9Xq+Ad4uKE45OvgiVy3xFt9oJ858SAHFFTha+KmQ8jXY1IA1pHnhIH5g/7OxZC7LcVqev3AHMBk4VZHnNjeHLI/Ae3N9wt25QoClSA8WOcUfLA13HP2gfNYenAeVpeUGnmT5+aL+wK3arx7mi4x/wYz56b2xB215p7zcE6PDko+aptVCWqpTheYmSA85QykK9pFYMtsr50ozbcZtNkSvJKbZ9JAQ5aLS9lHNKjPK/CyskSc11RvT0LTtOASwkEGq2Drea8o5Iu4C7UmB0QBLtFeaeFg/As97IxjPdj2HFKeDRyB4TCtz02bdpkG82iz3CIFipBQAx8cpBnaCB5er+ykMWFbFtePdo1Im+ouXKse25VZW7BIZVIBvCSHCs1uxqLZGNlvn1dLB0ZySM3FrclWgSTTEvzylVot9iOT5ym07NTpiVkqQKDr4NVmGgFEWxMChqFtKoKam0lhpUQdq+yAWxoMin3NX1EyjRtTJWG4kapL1xjzk/i++pJCZqOpo3jEydqtWo/EAvaCA7Y4rwSK2dOLMeWbTdqWXbV3anE0WBhAnEEXGqgcXDwqUGE37UHZMCEWbUK/BkcvKPif7c5erC9nY8HEcZlh3QwdfgDafyhNP7eUVSuHLmqGbAjdHB8RpJjmpdmj+YBZXG/Y3DSPkV4pn/CnKPIwFKmSorvjJw2VeXLXU0lUqXax0L+kWW9VYsG4D4DCmCNo/8A9z2JhVY0/Dn/AIIMcfSOdsuLrc/aRrJPbvmMaRHksxA8T9IgDL/T8/I8PB+Pw7+AgMsFCKKlpcW+IMbfY2YcRn0cLvQLCT+wcZuSHwdEgkm0detWIw//o2oLAVI4eGFYnjjUa9c4UskqlasepM//ywN+E1ZreAeGHan3bypdVIKuyCv5ZMlLbOxShQwaS5qMVAICViPYCMabsryfghaBiYIJYxOejvV0f0YUhHGyIRxkhMbBJwi3b99u77VE93cshAvJCXm+JSkHLozYF9NxmiLxCD2HfSBoMQZIARLgwz8UpVo1jfs2lMrOhoRpHYshfM8jIOASAB8Gf24VEvEvpkdFK5Pm4YBE8I/g50DjgEAWixcFm8LO94/LK2eH5GD7iK2m8M4KsNj630KpWAj9j48KQTB5OVlGFpvVXHlANY5MxAECeQQEXCKwrwPThb/vDImggQDXLNKJANHzg2doGThHIQ+ul0McDgigd2RajnXNfdinVTUQ0yQgDk2HpKKpIfUIPnnz4Z9EPFuur0nIrY2FckMdL8/xnZG5sIshkEdAwCUEJgyaB45Qvi7G9zt8ZQVtxE0YzBqcrb5XhD/4hG+DZVnMlqjf5GLAm7a8an9uYNwcpt3DU/bFMVZa0EZMy1BGYVWGPSKlBTH7MwsNJXFpKs+XtWV5tqdjOQjkERBwGQBJ4P9gKRYyYZkWAsGngSYAcbD8ClGwV6S2ttZ+XypgupzuG7M/ANWuJDIAgUzMKHmwBWNumZcvirF1fVMlpJEruXxm7CIQyCMg4DLBl2o5cyBqHHNmxNyBMxQtxB2slwpINS/B8acU8In4G7gIO7lgzkAiLMmyJ4TzxSKQR0BAwAog8n9Y66B5pcwt8gAAAABJRU5ErkJggg==;" vertex="1" parent="1">
          <mxGeometry x="933.5599999999998" y="499.99999999999994" width="239.89" height="92.95" as="geometry" />
        </mxCell>
        <mxCell id="D51pD80760HK5LYng4LF-102" value="+" style="text;html=1;align=center;verticalAlign=middle;whiteSpace=wrap;rounded=0;" vertex="1" parent="1">
          <mxGeometry x="815.7299999999999" y="497.5" width="60" height="30" as="geometry" />
        </mxCell>
        <mxCell id="D51pD80760HK5LYng4LF-103" value="+" style="text;html=1;align=center;verticalAlign=middle;whiteSpace=wrap;rounded=0;" vertex="1" parent="1">
          <mxGeometry x="816.7299999999999" y="523.5" width="60" height="30" as="geometry" />
        </mxCell>
        <mxCell id="D51pD80760HK5LYng4LF-106" value="" style="shape=link;html=1;rounded=0;" edge="1" parent="1">
          <mxGeometry width="100" relative="1" as="geometry">
            <mxPoint x="701.4499999999999" y="585" as="sourcePoint" />
            <mxPoint x="921.4499999999999" y="585" as="targetPoint" />
          </mxGeometry>
        </mxCell>
        <mxCell id="D51pD80760HK5LYng4LF-107" value="&lt;b&gt;[totalEquipoEVEN]&lt;/b&gt;" style="rounded=0;whiteSpace=wrap;html=1;fillColor=#d5e8d4;strokeColor=#82b366;" vertex="1" parent="1">
          <mxGeometry x="765.7299999999999" y="592.95" width="140" height="25" as="geometry" />
        </mxCell>
      </root>
    </mxGraphModel>
  </diagram>
</mxfile>
